<?xml version="1.0" encoding="UTF-8" standalone="no"?>
<!-- Created with Inkscape (http://www.inkscape.org/) -->

<svg
   width="491.15115mm"
   height="298.88852mm"
   viewBox="0 0 491.15118 298.88854"
   version="1.1"
   id="svg1"
   sodipodi:docname="2eul.svg"
   inkscape:version="1.1.2 (b8e25be833, 2022-02-05)"
   xmlns:inkscape="http://www.inkscape.org/namespaces/inkscape"
   xmlns:sodipodi="http://sodipodi.sourceforge.net/DTD/sodipodi-0.dtd"
   xmlns="http://www.w3.org/2000/svg"
   xmlns:svg="http://www.w3.org/2000/svg">
  <sodipodi:namedview
     id="namedview1"
     pagecolor="#ffffff"
     bordercolor="#000000"
     borderopacity="0.25"
     inkscape:showpageshadow="2"
     inkscape:pageopacity="0.0"
     inkscape:pagecheckerboard="0"
     inkscape:deskcolor="#d1d1d1"
     inkscape:document-units="mm"
     inkscape:zoom="0.34609638"
     inkscape:cx="1113.8516"
     inkscape:cy="213.81327"
     inkscape:window-width="2560"
     inkscape:window-height="1377"
     inkscape:window-x="-8"
     inkscape:window-y="-8"
     inkscape:window-maximized="1"
     inkscape:current-layer="layer1"
     inkscape:pageshadow="2"
     showgrid="false" />
  <defs
     id="defs1">
    <pattern
       id="EMFhbasepattern"
       patternUnits="userSpaceOnUse"
       width="6"
       height="6"
       x="0"
       y="0" />
    <pattern
       id="EMFhbasepattern-2"
       patternUnits="userSpaceOnUse"
       width="6"
       height="6"
       x="0"
       y="0" />
  </defs>
  <g
     inkscape:label="Layer 1"
     inkscape:groupmode="layer"
     id="layer1"
     transform="translate(4.3962091,-11.038376)">
    <path
       style="fill:#000000;fill-opacity:1;fill-rule:nonzero;stroke:none;stroke-width:0.264583"
       d="m 266.23267,209.46833 c 1.5875,-2.55763 3.08681,-5.11527 4.7625,-7.58472 0.79375,-1.14653 0.70556,-1.76389 -0.52916,-2.46944 -3.70417,-2.11667 -7.32014,-4.49792 -11.02431,-6.61459 -1.05833,-0.70555 -1.41111,-1.41111 -1.32292,-2.73402 0.17639,-1.41111 0.79375,-2.82223 0.0882,-4.32153 -0.35278,-0.61736 0.70555,-1.49931 0.79375,-2.55764 0.26458,-2.91042 0.70555,-5.90903 1.05833,-8.90764 0,-0.44097 -0.17639,-1.23472 0.61736,-1.14653 0.70556,0.0882 0.35278,0.88195 0.35278,1.32292 -0.26458,2.38125 -0.61736,4.67431 -0.88194,6.96736 -0.0882,0.79375 0.17639,0.97014 0.79375,1.49931 2.29305,1.85208 4.49791,0.61736 6.61458,0.26458 2.73403,-0.52917 5.37986,-1.23472 8.11389,-1.76389 1.14653,-0.17639 1.32292,-0.61736 1.23472,-1.5875 -0.26458,-3.0868 -0.52917,-6.08542 -0.61736,-9.17222 -0.0882,-1.05833 -0.52917,-1.23472 -1.41111,-1.23472 -3.43958,0 -6.96736,-0.0882 -10.40695,-0.17639 -0.52916,0 -1.4993,0.35278 -1.4993,-0.61736 0,-0.97014 0.97014,-0.52917 1.4993,-0.61736 0.44098,-0.0882 0.88195,-0.0882 1.23473,0 3.175,0.61736 5.20347,-0.70556 6.35,-3.79237 -3.08681,-1.4993 -6.61459,-2.02847 -9.96598,-3.175 -0.61736,-0.17638 -1.76388,-0.0882 -1.5875,-0.88194 0.26459,-0.97014 1.23473,-0.26458 1.85209,-0.0882 1.85208,0.44097 3.79236,0.79375 5.55625,1.41111 3.61597,1.32291 5.99722,-0.88195 8.29028,-2.73403 1.76388,-1.49931 2.82222,-3.79236 4.23333,-5.64445 0.70555,-0.79375 0.35278,-1.14652 -0.35278,-1.4993 -4.58611,-2.55764 -9.17222,-5.11528 -13.67014,-7.76111 -1.32291,-0.70556 -2.46944,-0.17639 -3.61597,-0.0882 -2.46944,0.26459 -4.85069,0.79375 -7.32014,1.14653 -0.44097,0.0882 -1.14653,0.61736 -1.41111,-0.26458 -0.26458,-0.79375 0.52917,-0.97014 0.97014,-1.23472 2.99861,-1.76389 6.08542,-3.43959 9.08403,-5.20348 0.52916,-0.26458 1.23472,-0.52916 1.32291,-1.41111 0,-0.61736 0.61736,-0.61736 1.05834,-0.61736 1.94027,0.17639 2.91041,-0.79375 3.26319,-2.55764 0.79375,-3.61597 1.6757,-7.14375 2.55764,-10.67153 0.35278,-1.14652 0.26458,-1.67569 -1.14653,-1.94027 -5.46805,-0.97014 -10.75972,-2.29306 -16.22778,-3.2632 -2.02847,-0.35278 -3.52777,-1.32291 -5.11527,-2.55764 -1.23473,-0.88194 -0.97014,-1.67569 0.0882,-2.46944 1.32292,-1.05833 2.82222,-2.02847 4.23333,-2.99861 3.61598,-2.55764 7.14375,-5.20347 10.75973,-7.67292 0.97014,-0.70555 1.14652,-1.23472 0.70555,-2.293055 -1.32291,-3.439584 -2.64583,-6.790973 -3.88055,-10.230557 -0.26459,-0.970139 -0.88195,-1.322916 -1.85209,-1.499306 -5.37986,-0.79375 -10.75972,-1.5875 -16.13958,-2.469444 -0.44097,-0.08819 -1.05833,0 -1.14653,-0.61736 -0.17639,-0.529167 0.26459,-0.881946 0.70556,-1.058333 0.17639,-0.17639 0.35278,-0.264584 0.61736,-0.440973 8.11389,-3.704167 13.75833,-10.583334 20.46111,-16.315973 -5.64444,-2.998611 -11.28889,-5.997221 -16.75694,-8.995834 -2.64584,-1.41111 -5.11528,-2.910416 -7.58473,-4.40972 -0.79375,-0.529167 -1.41111,-0.617363 -2.20486,-0.0882 -3.88055,2.028473 -7.76111,4.056946 -11.64166,5.997223 -1.14653,0.529166 -1.41112,0.970139 -0.52917,2.116666 2.46944,3.35139 4.85069,6.702777 7.23194,10.054167 0.61736,0.881944 1.32292,1.322917 2.38125,1.5875 3.88056,0.97014 7.76111,1.940277 11.64167,2.99861 0.44097,0.0882 1.23472,0.0882 1.23472,0.705557 -0.0882,0.79375 -0.88194,0.529166 -1.41111,0.61736 -2.29305,0.264583 -4.58611,0.529167 -6.87917,0.79375 -0.61736,0.0882 -1.05833,0.264583 -1.5875,0.705556 -3.61597,2.822223 -7.23194,5.73264 -10.93611,8.554861 -1.05833,0.79375 -1.05833,1.234723 -0.0882,2.116666 3.0868,2.910417 6.17361,5.90903 9.26042,8.90764 1.4993,1.499309 3.43958,0.97014 5.11527,1.499309 0.79375,0.26458 2.20486,-0.0882 2.29306,0.79375 0,1.05833 -1.41111,0.70555 -2.20486,0.88194 -3.88056,0.97014 -7.84931,1.7639 -11.81806,2.55765 -1.14653,0.17638 -1.76389,0.61736 -2.11666,1.76388 -0.97014,2.82223 -1.94028,5.73264 -2.99862,8.64306 -0.44097,1.05833 -0.17638,1.67569 0.70556,2.29306 4.05694,2.82222 8.20208,5.46805 12.08264,8.55486 0.26458,0.26458 0.97014,0.17639 0.61736,0.79375 -0.26458,0.52916 -0.79375,0.26458 -1.05833,0.0882 -1.23473,-0.61736 -2.38125,-0.26458 -3.61598,0.0882 -4.40972,1.4993 -8.90763,2.99861 -13.40555,4.40972 -1.23472,0.35278 -1.49931,0.88194 -0.88195,1.94028 1.14653,2.11666 1.32292,4.6743 2.99862,6.61458 0.52916,0.52917 0.35277,1.94028 0.61736,2.99861 0.44097,1.23472 1.23472,1.94028 2.46944,2.46944 3.43958,1.5875 6.96736,2.91042 10.23056,4.7625 0.0882,0.0882 0.26458,0.26459 0.44097,0.44098 -0.70556,0.70555 -1.41111,0.26458 -2.11667,0.17639 -2.82222,-0.44098 -5.73264,-0.88195 -8.55486,-1.32292 -0.79375,-0.17639 -1.32292,0 -1.94028,0.44097 -3.26319,2.73403 -6.61458,5.37986 -10.05416,8.0257 -0.97014,0.79375 -0.79375,1.23472 -0.0882,2.02847 3.79236,3.96875 3.79236,4.05694 8.99584,2.20486 1.4993,-0.61736 3.0868,-1.23472 4.58611,-1.6757 0.52916,-0.17638 1.14652,-0.88194 1.4993,0 0.26459,0.79375 -0.61736,0.88195 -1.05833,1.14653 -2.29306,1.14653 -4.58611,2.38125 -6.96736,3.43959 -1.14653,0.61736 -1.14653,1.05833 -0.26459,1.85208 1.05834,0.88194 2.02848,1.85208 2.82223,2.91042 0.97014,1.23472 2.11666,1.76388 3.70416,1.4993 0.52917,-0.0882 1.14653,-0.26458 1.6757,0.35278 -0.26459,0.70555 -0.97014,0.52917 -1.49931,0.52917 -3.96875,0.26458 -7.9375,0.52916 -11.90625,0.61736 -1.4993,0.0882 -2.11666,0.52916 -1.94028,2.11666 0.17639,2.11667 0.17639,4.32153 0.17639,6.4382 0,1.05833 0.35278,1.4993 1.41111,1.67569 3.35139,0.52917 6.70278,1.23472 10.05417,1.85209 0.52917,0.17638 1.05833,0.26458 1.41111,-0.17639 1.14653,-1.32292 2.29306,-1.32292 3.70417,0 -0.26458,-4.05695 -0.52917,-7.76111 -0.79375,-11.46528 -0.0882,-0.35278 -0.17639,-0.79375 -0.17639,-1.23472 0,-0.44098 -0.26458,-1.23473 0.52917,-1.23473 0.79375,-0.0882 0.52916,0.70556 0.61736,1.23473 0.35278,4.05694 0.61736,8.11389 0.97014,12.25902 0.0882,0.70556 0,1.32292 0.61736,1.94028 0.79375,0.79375 -0.88195,1.14653 -0.44097,2.29306 0.88194,2.38125 0,4.05694 -2.46945,5.29166 -3.61597,1.85209 -6.96736,4.14514 -10.49514,6.17362 -1.05833,0.61736 -1.05833,1.05833 -0.26458,1.94027 1.94028,1.94028 3.70417,4.05695 5.55625,6.17361 0.61736,0.79375 1.32292,1.14653 2.38125,0.97014 3.70417,-0.44097 7.49653,-0.79375 11.20069,-1.23472 0.52917,-0.0882 1.05834,-0.17639 1.5875,-0.17639 0.44098,0 0.97014,-0.26458 1.14653,0.44097 0.17639,0.61737 -0.44097,0.70556 -0.79375,0.88195 -3.175,1.4993 -6.35,3.0868 -9.61319,4.49792 -0.88195,0.44097 -1.49931,0.97013 -2.02848,1.76388 -2.20486,4.05695 -4.40972,8.0257 -6.87916,11.90625 -1.14653,1.85209 -1.05834,3.96875 -1.32292,5.90903 -0.44097,4.05695 -0.79375,8.11389 -1.14653,12.08264 -0.0882,1.14653 -0.35277,2.11667 -0.79375,3.08681 -2.02847,3.88055 -4.05694,7.8493 -5.99722,11.72986 -0.44097,0.97014 -1.14653,1.67569 -1.94028,2.20486 -4.32152,3.26319 -8.55486,6.52639 -12.78819,9.70139 -0.79375,0.61736 -1.05833,1.23472 -1.05833,2.20486 -0.17639,5.64444 -0.44098,11.20069 -0.70556,16.84513 0,0.97015 -0.44097,1.49931 -1.23472,1.85208 -0.0882,0 -0.0882,0 -0.17639,0.0882 -8.55486,2.02846 -15.34583,7.49652 -22.57778,11.99444 -2.11667,1.4111 -2.20486,1.4111 -3.175,-0.97015 -0.17639,-0.61735 -0.44097,-1.14652 -0.61736,-1.67568 -1.14653,-5.20349 -4.14514,-8.90765 -8.99583,-11.1125 -0.70556,-0.26459 -1.41111,-0.88194 -2.02848,-1.32292 -6.52638,-4.23333 -6.52638,-4.23333 -14.2875,-4.49792 -3.26319,-0.0882 -6.52638,-0.44098 -9.87777,-0.61735 -1.05834,0 -1.85209,-0.44098 -2.64584,-1.14655 -4.40972,-3.35137 -7.67291,-7.6729 -11.20069,-11.90624 -1.49931,-1.85208 -3.175,-3.70416 -4.67431,-5.73263 -0.70555,-0.97014 -1.41111,-1.05834 -2.46944,-0.61737 -4.7625,1.94028 -9.6132,3.88056 -14.375704,5.82084 -1.14652,0.44097 -2.20486,0.52916 -3.43958,0.17639 -5.46806,-1.5875 -11.02431,-3.08681 -16.58056,-4.58611 -0.88194,-0.17639 -1.4993,-0.61737 -2.02847,-1.23473 -1.76389,-2.11666 -3.61597,-4.23333 -5.37986,-6.35 -1.05833,-1.41111 -0.97014,-1.76389 0.79375,-2.20486 5.29167,-1.05833 10.58333,-2.11666 15.875,-3.0868 1.32292,-0.17639 2.02847,-0.70556 2.38125,-2.11667 1.14653,-4.85069 2.38125,-9.61319 3.61597,-14.46389 0.26459,-0.79375 0.26459,-1.85208 1.32292,-2.11667 1.49931,-0.44097 1.49931,-1.05833 0.44097,-1.94027 -1.14653,-0.97014 -0.97014,-1.94028 -0.26458,-3.08681 2.38125,-3.79236 4.6743,-7.58472 6.96736,-11.46528 0.264584,-0.44097 0.705564,-0.88194 0.705564,-1.67569 -2.293064,0.61736 -4.497924,1.14653 -6.790984,1.85208 -1.85208,0.52917 -3.70416,1.32292 -5.73264,1.6757 -4.49791,0.97014 -6.52638,4.05694 -7.49652,8.20208 -0.61736,2.46944 -1.32292,5.02708 -1.85209,7.49653 -0.26458,1.32291 -0.97014,1.94028 -2.20486,2.20486 -1.94028,0.35278 -3.43958,1.05833 -3.79236,3.35139 -0.17639,1.05833 -0.97014,2.02847 -1.41111,2.99861 -0.26458,0.52917 -0.61736,0.97014 -1.23472,0.97014 -0.52917,-0.0882 -0.52917,-0.61736 -0.70556,-0.97014 -0.70555,-1.14653 -0.70555,-2.99861 -1.94028,-3.2632 -1.14652,-0.35277 -2.55763,0.61737 -3.88055,0.88195 -5.37986,1.41111 -10.05417,4.23333 -14.90486,6.70278 -1.49931,0.70555 -2.20486,0.44097 -2.73403,-1.14653 -1.14653,-3.43958 -2.55764,-6.87917 -3.79236,-10.40695 -0.35278,-0.97013 -0.88195,-1.41111 -1.94028,-1.5875 -5.02708,-0.88194 -9.96597,-1.85208 -14.90486,-2.73402 -0.52917,-0.0882 -1.32292,0 -1.41111,-0.79375 -0.17639,-0.97014 0.79375,-0.88195 1.32291,-0.97014 3.96875,-0.52917 6.70278,-2.73403 9.17223,-5.82084 2.38125,-2.91041 5.02708,-5.55625 7.67291,-8.29027 0.88195,-0.97014 1.23473,-1.85209 0.88195,-3.2632 -0.97014,-4.58611 -1.85208,-9.17222 -2.73403,-13.75833 -0.0882,-0.52917 -0.52917,-1.14653 0.17639,-1.41111 0.88194,-0.26459 0.70556,0.61736 0.79375,1.05833 1.05833,5.02708 2.11667,10.05417 3.08681,15.16945 0.17638,0.79375 -0.0882,1.41111 -0.61737,2.02847 -3.96875,4.32153 -7.9375,8.64305 -11.90625,12.96458 -0.52916,0.61736 -1.23472,0.88195 -1.94027,1.14653 -1.05834,0.26458 -2.02848,0.61736 -3.43959,1.05833 4.93889,0.88195 9.43681,1.76389 13.93473,2.55764 1.4993,0.26458 2.38125,0.88195 2.91041,2.29306 1.14653,3.35139 2.46945,6.61458 3.61597,9.96597 0.35278,0.97014 0.61737,1.32292 1.76389,0.79375 5.55625,-2.99861 11.2007,-5.90903 17.4625,-7.40833 1.05834,-0.26459 1.05834,-0.70556 0.70556,-1.5875 -1.41111,-2.99862 -2.64583,-5.99723 -4.14514,-8.99584 -0.70556,-1.41111 -0.52917,-2.46944 0.35278,-3.70416 2.11666,-2.99862 4.14514,-6.08542 6.2618,-9.26042 -2.29305,-0.97014 -4.58611,-1.85208 -6.79097,-2.82222 -2.11667,-0.88195 -2.20486,-1.05834 -1.32292,-2.99861 2.02848,-4.40973 4.05695,-8.81945 5.99723,-13.14098 0.35277,-0.79375 0.70555,-1.4993 1.41111,-2.11666 -2.64584,-1.6757 -5.20347,-3.35139 -7.76111,-5.02709 -0.44098,-0.26458 -0.88195,-0.26458 -1.49931,-0.17639 -4.40972,0.61737 -8.81944,1.6757 -13.31736,1.94028 -0.70556,0 -0.88194,0.52917 -1.14653,0.97014 -1.05833,1.41111 -2.02847,2.91042 -2.99861,4.32153 -0.35278,0.44097 -0.70555,1.05833 -1.23472,0.70555 -0.70556,-0.52916 0.0882,-0.97013 0.35278,-1.32291 1.23472,-2.11667 3.52777,-3.88056 3.79236,-6.17361 0.26458,-2.29306 -0.97014,-4.67431 -1.5875,-6.96736 -0.52917,-2.20487 -1.14653,-4.32153 -1.6757,-6.52639 -0.0882,-0.44098 -0.44097,-0.97014 0.17639,-1.41111 0.61736,-0.44098 0.97014,0.0882 1.41111,0.26458 2.55764,1.5875 5.11528,3.26319 7.76111,4.85069 1.32292,0.79375 1.32292,1.49931 0.52917,2.64584 -1.67569,2.38125 -3.26319,4.7625 -5.02708,7.32014 1.41111,0.35277 2.46944,-0.0882 3.61597,-0.26459 3.08681,-0.44097 6.08542,-0.88194 9.17222,-1.4993 0.97014,-0.17639 1.6757,0 2.46945,0.52916 4.49791,2.91042 8.99583,5.82084 13.40555,8.73125 0.44097,0.26459 1.32292,0.52917 0.88195,1.23473 -0.44098,0.70555 -0.88195,-0.0882 -1.32292,-0.17639 -1.67569,-0.44098 -3.175,-1.32292 -4.7625,-1.94028 -0.79375,-0.35278 -1.23472,-0.44097 -1.5875,0.52917 -1.94028,4.32152 -3.96875,8.73125 -5.99722,13.05277 -0.44097,0.88195 -0.26459,1.32292 0.61736,1.5875 2.11667,0.88195 4.23333,1.76389 6.35,2.64584 1.32292,0.52916 1.4993,1.14652 0.70555,2.29305 -2.11666,2.99861 -4.05694,6.08542 -6.17361,9.08403 -0.44097,0.70556 -0.61736,1.23472 -0.26458,2.02847 1.49931,3.175 2.99861,6.35 4.32153,9.525 0.44097,0.97014 0.88194,0.97014 1.85208,0.79375 2.38125,-0.44097 3.52778,-1.67569 4.05695,-4.05694 0.70555,-3.70417 1.94027,-7.23195 2.91041,-10.84792 0.26459,-1.14653 0.79375,-1.94028 1.94028,-2.02847 3.96875,-0.52917 6.61458,-2.82222 8.46667,-6.26181 3.88055,-7.14375 10.67152,-11.37708 16.580554,-16.58055 4.32153,-3.70417 8.46667,-7.76111 12.61181,-11.72986 1.41111,-1.32292 2.82222,-2.64584 4.7625,-3.2632 0.88194,-0.26458 1.14653,-0.88194 1.05833,-1.85208 -0.26458,-3.175 -0.35278,-6.35 -0.52917,-9.525 -0.0882,-1.23472 -0.26458,-2.38125 -0.79375,-3.52778 -1.5875,-3.96875 -2.99861,-7.9375 -4.58611,-11.81805 -0.52916,-1.14653 -0.35277,-1.85209 0.70556,-2.55764 4.23333,-2.99861 8.46667,-5.99723 12.7,-9.08403 1.05833,-0.79375 1.76389,-0.52917 2.38125,0.26458 3.52778,4.49792 7.05556,8.99584 10.49514,13.58195 0.88194,1.14652 0.61736,2.55764 0.70555,3.88055 0.0882,1.32292 -0.0882,2.55764 0.35278,3.88056 0.79375,-0.0882 1.14653,-0.79375 1.49931,-1.32292 1.05833,-1.4993 2.38125,-1.67569 3.96875,-1.4993 5.29166,0.61736 10.49514,1.05833 15.7868,1.76388 1.41111,0.17639 1.6757,-0.44097 1.85209,-1.4993 0.61736,-3.175 1.14652,-6.26181 1.76389,-9.34861 0.35277,-1.76389 0.79375,-1.85209 2.20486,-0.70556 3.79236,3.2632 7.49652,6.52639 11.37708,9.78959 0.79375,0.70555 1.05833,1.41111 0.88194,2.55763 -1.14652,5.37987 -2.29305,10.67153 -3.26319,16.05139 -0.26458,1.32292 -0.88194,1.76389 -2.20486,1.5875 -5.64445,-0.70555 -11.28889,-1.23472 -16.93333,-1.94027 -0.97014,-0.17639 -1.49931,0 -1.85209,0.79375 -0.0882,0.0882 -0.0882,0.17638 -0.0882,0.17638 -1.23472,1.85209 -3.2632,3.70417 -3.43959,5.64445 -0.17638,1.85208 1.41112,3.96875 2.38125,5.90903 0.61737,1.23472 0.44098,2.11666 -0.52916,3.0868 -1.32292,1.14653 -3.43959,2.11667 -3.52778,3.70417 -0.0882,1.4993 1.32292,3.0868 2.02847,4.58611 1.14653,2.38125 2.20486,4.67431 3.43959,6.96736 0.70555,1.23472 0.52916,2.11667 -0.44098,3.08681 -1.41111,1.4993 -2.64583,3.175 -4.14514,4.58611 -1.23472,1.23472 -0.79375,1.5875 0.61737,1.94028 2.64583,0.88194 5.37986,1.76388 8.02569,2.55763 1.32292,0.44098 1.85208,1.14653 1.85208,2.55764 -0.0882,4.49792 0,9.08403 -0.0882,13.58195 0,1.14653 0.44097,1.5875 1.4993,1.67569 1.23473,0.17639 2.55764,0.26459 3.79237,0.44097 0.52916,0.0882 1.23472,0 1.32291,0.70556 0.0882,0.70556 -0.61736,0.70556 -1.05833,0.88194 -4.7625,1.6757 -9.43681,3.2632 -14.19931,4.8507 -1.14652,0.44097 -2.02847,0.97014 -2.82222,1.94028 -2.64583,2.99861 -5.37986,5.90902 -7.9375,8.90764 -0.79375,0.97013 -1.67569,1.23472 -2.82222,1.05833 -1.76389,-0.35278 -3.61597,-0.52917 -5.37986,-0.88195 -0.79375,-0.17638 -1.32292,0.26459 -1.94028,0.70556 -3.88056,2.64583 -7.84931,5.37986 -11.72986,8.11389 -1.14653,0.88194 -1.94028,0.79375 -2.99861,-0.26458 -3.70417,-3.96875 -7.49653,-7.84931 -11.37709,-11.81806 -0.97014,-0.97014 -1.14652,-1.85208 -0.44097,-3.08681 1.49931,-2.64583 2.91042,-5.37986 4.49792,-8.37847 -1.5875,-0.17639 -2.99861,-0.26458 -4.40972,-0.44097 -0.52917,-0.0882 -1.32292,0.17639 -1.14653,-0.70556 0.0882,-0.79375 0.79375,-0.44097 1.23472,-0.44097 1.32292,0.0882 2.55764,0.17639 3.88056,0.35278 0.52916,0 1.05833,0.0882 1.41111,-0.52917 1.5875,-2.99861 3.61597,-5.82083 3.96875,-9.70139 -2.82223,1.05834 -5.37986,2.11667 -7.9375,3.08681 -2.46945,0.97014 -4.8507,1.85208 -7.23195,2.82222 -1.14653,0.44097 -1.85208,0.26459 -2.64583,-0.61736 -1.146534,-1.4993 -2.469454,-2.99861 -3.792364,-4.40972 -0.52917,-0.52917 -0.70556,-1.49931 -1.85209,-1.14653 -1.14652,0.35278 -1.67569,0.97014 -1.94027,2.11667 -1.23473,4.85069 -2.55764,9.70139 -3.70417,14.55208 -0.35278,1.49931 -0.97014,2.20486 -2.55764,2.55764 -5.11528,0.88194 -10.23055,1.94028 -15.34583,2.91042 -1.23472,0.26458 -1.32292,0.52916 -0.52917,1.41111 1.49931,1.76389 3.08681,3.61597 4.58611,5.55625 0.52917,0.61736 1.23472,0.79375 2.02847,1.05833 5.29167,1.41111 10.58334,2.82222 15.875,4.32153 1.14653,0.35278 2.02848,0.26458 3.08681,-0.17639 4.938894,-1.94028 9.789584,-3.88056 14.728474,-5.90903 1.23472,-0.52916 2.02847,-0.35278 2.82222,0.70556 2.55764,3.0868 5.20348,6.08541 7.67292,9.26041 2.55764,3.2632 5.46806,6.08541 8.55486,8.81946 0.97014,0.79375 2.02848,0.79375 3.175,0.88193 4.58611,0.35277 9.26042,0.61735 13.84653,0.79375 2.02847,0.0882 3.88056,0.52917 5.64445,1.7639 3.61597,2.55762 7.40833,4.93887 11.20069,7.32012 1.05833,0.61738 1.67569,1.49932 2.11667,2.64583 0.88194,2.46947 1.85208,4.85072 2.73402,7.23197 0.35278,0.97012 0.70556,1.05833 1.5875,0.52916 2.46945,-1.67571 5.11528,-3.175 7.49653,-4.93889 4.40972,-3.08682 8.99584,-5.46807 14.19931,-6.87917 1.23472,-0.35277 1.67569,-0.97015 1.76389,-2.29307 0.0882,-5.37985 0.44097,-10.67151 0.61736,-16.05137 0,-1.23473 0.44097,-2.02848 1.41111,-2.82223 4.32153,-3.175 8.55486,-6.43819 12.87639,-9.61319 0.79375,-0.61736 1.41111,-1.32292 1.85208,-2.29306 2.02847,-3.96875 4.05695,-7.9375 6.08542,-11.81805 0.17639,-0.35278 0.26458,-0.52917 0.26458,-0.88195 0.44097,-5.11527 0.97014,-10.23055 1.49931,-15.34583 0.0882,-1.5875 0.44097,-2.99861 1.23472,-4.32153 2.46944,-4.05694 4.7625,-8.11389 7.05555,-12.25903 0.52917,-0.88194 1.23473,-1.4993 2.20487,-1.94027 2.20486,-0.97014 4.40972,-2.02848 6.52638,-3.35139 -2.55763,0.26458 -5.29166,0.44097 -7.8493,0.88194 -2.29306,0.44097 -4.05695,0.17639 -5.46806,-1.94028 -1.4993,-2.02847 -3.26319,-3.79236 -5.02708,-5.73263 -0.35278,-0.35278 -0.61736,-1.14653 -1.32292,-0.70556 -0.70555,0.35278 -1.76389,0.52917 -1.85208,1.67569 -0.35278,3.70417 -0.61736,7.40834 -0.97014,11.2007 -0.0882,1.05833 0.70556,0.97014 1.32292,1.14653 0.44097,0.17639 1.14653,0.0882 0.97014,0.79375 -0.17639,0.52916 -0.70556,0.35277 -1.05834,0.26458 -1.14652,-0.44097 -1.32291,0.17639 -1.4993,1.14653 -0.44097,2.99861 -0.44097,2.99861 -3.52778,3.26319 -2.82222,0.26459 -5.64444,0.70556 -8.55486,1.05834 -0.52917,0.0882 -0.79375,0.26458 -0.97014,0.79375 -0.97014,2.46944 -1.94028,5.02708 -2.99861,7.49652 -0.44097,0.88195 0.0882,1.23473 0.70555,1.6757 2.82223,2.20486 5.55625,4.49791 8.37848,6.70278 0.26458,0.17638 0.70555,0.26458 0.44097,0.79375 -0.17639,0.26458 -0.52917,0.35277 -0.70556,0.17638 -3.0868,-2.55763 -6.35,-0.70555 -9.525,-0.26458 -3.26319,0.35278 -5.73264,2.99861 -6.2618,6.17361 -0.52917,3.175 -0.97014,6.26181 -1.6757,9.34861 -0.17639,1.05834 0.17639,1.49931 0.97014,1.94028 3.35139,1.94028 6.87917,3.61597 10.05417,5.82083 0.35278,0.17639 0.79375,0.26459 0.61736,0.79375 -0.17639,0.52917 -0.70556,0.35278 -1.05833,0.17639 -3.79236,-0.88194 -7.49653,-1.85208 -11.28889,-2.73402 -0.70556,-0.17639 -1.32292,-0.52917 -1.14653,-1.32292 0.97014,-3.43958 -0.61736,-6.52639 -1.23472,-9.78958 -0.44097,-2.38125 -1.05834,-4.7625 -1.6757,-7.14375 -0.44097,-1.49931 0.0882,-2.20487 1.5875,-2.38125 1.94028,-0.35278 3.88056,-0.79375 5.82084,-1.05834 0.97014,-0.0882 1.4993,-0.44097 1.85208,-1.41111 0.61736,-1.67569 1.23472,-3.35139 1.94028,-5.02708 0.44097,-0.88195 0.44097,-1.5875 -0.52917,-2.11667 0,0 -0.0882,0 -0.0882,-0.0882 -3.43959,-2.82223 -3.43959,-2.82223 -1.32292,-6.70278 1.76389,-3.35139 3.61597,-6.61458 5.29167,-9.96597 0.61736,-1.05834 1.32291,-1.41111 2.46944,-1.14653 1.6757,0.35278 3.43958,0.70555 5.29167,1.05833 0,-0.79375 -0.44097,-1.32291 -0.70556,-1.85208 -1.94028,-3.88056 -3.88055,-7.67292 -5.90903,-11.55347 -0.97013,-1.94028 -0.88194,-2.11667 1.05834,-2.82223 4.14514,-1.5875 8.20208,-3.0868 12.34722,-4.6743 0.52917,-0.17639 1.05833,-0.44097 1.76389,-0.70556 -1.85208,-1.23472 -3.61597,-2.46944 -5.37986,-3.61597 -0.88195,-0.52917 -1.14653,-1.14653 -0.97014,-2.20486 0.79375,-4.32153 1.4993,-8.64306 2.20486,-13.05278 0.0882,-0.52916 0.26458,-1.14653 0.79375,-1.23472 1.5875,-0.17639 1.41111,-1.32292 1.23472,-2.29306 -0.35278,-2.91041 0.0882,-5.20347 3.70417,-5.73263 -1.5875,-0.79375 -3.175,-1.49931 -4.67431,-2.29306 -2.64583,-1.14653 -5.37986,-2.38125 -8.02569,-3.61597 -0.26458,-0.17639 -1.49931,-0.26459 -0.44097,-1.05834 0.97014,-0.0882 1.67569,0.44098 2.46944,0.79375 2.91042,1.32292 5.90903,2.73403 8.99583,4.14514 -0.17638,-1.05833 -0.79375,-1.41111 -1.23472,-1.85208 -1.4993,-1.5875 -1.4993,-1.76389 0.0882,-2.99861 3.26319,-2.64583 6.52639,-5.20347 9.70139,-7.84931 1.23472,-1.05833 2.46944,-1.23472 3.96875,-0.97014 1.67569,0.35278 3.43958,0.52917 5.11527,0.88195 -1.41111,-0.97014 -2.82222,-1.76389 -4.40972,-2.29306 -2.64583,-0.97014 -4.85069,-2.29305 -5.37986,-5.37986 -0.17639,-0.97014 -0.88194,-1.05833 -1.76389,-0.97014 -2.38125,0.44098 -4.85069,0.79375 -7.32014,0.97014 -1.14653,0.17639 -1.76389,0.70556 -2.29305,1.5875 -2.64584,4.67431 -5.29167,9.26042 -7.9375,13.93472 -1.76389,0 -0.61736,-0.97013 -0.35278,-1.41111 2.02847,-3.61597 4.05694,-7.23194 6.17361,-10.84791 0.44097,-0.79375 0.88194,-1.5875 1.32292,-2.38125 -0.44098,-0.61736 -0.97014,-0.26459 -1.32292,-0.17639 -1.23472,0.17639 -1.85208,-0.44097 -2.29306,-1.41111 -2.20486,-4.40973 -4.40972,-8.81945 -6.61458,-13.22917 -0.61736,-1.14653 -0.44097,-1.85208 0.70556,-2.46944 2.55764,-1.32292 5.02708,-2.73403 7.49652,-4.23334 0.35278,-0.0882 0.61737,-0.35278 1.14653,-0.70555 -3.26319,-0.97014 -6.35,-1.94028 -9.4368,-2.73403 -1.76389,-0.44097 -2.38125,-1.23472 -2.11667,-3.08681 0.70556,-4.40972 1.23472,-8.81944 1.76389,-13.22917 0.17639,-1.675693 1.32292,-2.204859 2.73403,-2.822222 -4.23334,-3.086804 -8.37848,-5.997221 -12.52361,-8.995833 0.17638,-0.08819 0.44097,-0.264584 0.70555,-0.352777 3.88056,2.645833 7.76111,5.203473 11.55347,7.9375 1.05834,0.705556 1.85209,0.881943 3.08681,0.352777 2.64583,-1.146527 5.37986,-2.204861 8.11389,-3.351388 0.44097,-0.176389 1.05833,-0.617362 1.32291,0.08819 0.26459,0.705556 -0.44097,0.79375 -0.79375,0.97014 -2.64583,1.322916 -5.37986,2.645833 -8.02569,4.056943 -0.61736,0.352777 -1.23472,0.440973 -2.02847,0.264584 -1.41111,-0.264584 -2.91042,0.705556 -3.08681,1.763886 -0.61736,4.67431 -1.14653,9.34861 -1.85208,14.02292 -0.0882,0.79375 0.0882,1.05833 0.88194,1.23472 2.20486,0.61736 4.40973,1.05833 6.4382,1.94028 3.0868,1.23472 5.99722,1.23472 8.64305,-0.97014 0.35278,-0.35278 0.79375,-0.52917 1.32292,-0.52917 0.26458,0 0.70556,0.0882 0.70556,0.35278 0.0882,1.41111 0.44097,2.99861 -0.35278,4.32153 -0.70556,1.14653 -1.76389,0.0882 -2.73403,-0.0882 -1.23472,-0.17638 -2.38125,-1.05833 -3.70417,-0.26458 -2.82222,1.6757 -5.64444,3.35139 -8.55486,4.8507 -0.79375,0.52916 -0.70555,0.79375 -0.35278,1.4993 2.02848,3.96875 4.05695,7.9375 5.90903,11.99445 0.79375,1.5875 1.76389,2.11666 3.2632,1.4993 2.20486,-0.79375 4.49791,-0.79375 6.79097,-1.05833 1.14653,-0.17639 2.29305,-0.35278 3.43958,-0.44097 0.88195,0 0.97014,-0.44098 0.70556,-1.14653 -0.79375,-1.76389 -1.41111,-3.61597 -2.20486,-5.37986 -0.52917,-1.32292 -0.0882,-2.02848 1.14652,-2.46945 5.46806,-1.76389 10.84792,-3.52778 16.22778,-5.29166 -3.61597,-2.46945 -7.14375,-5.02709 -10.75972,-7.49653 -1.05833,-0.70556 -1.32292,-1.41111 -0.88194,-2.64584 1.05833,-2.91041 2.11666,-5.82083 2.99861,-8.81944 0.44097,-1.67569 1.41111,-2.38125 2.99861,-2.64583 3.70416,-0.70556 7.32014,-1.49931 11.20069,-2.29306 -1.67569,-0.88194 -3.52778,-0.35278 -4.85069,-1.675693 -3.2632,-3.263194 -6.52639,-6.35 -9.87778,-9.525 -1.14653,-1.058333 -1.05833,-1.76389 0.0882,-2.645833 2.64584,-2.028473 5.37987,-3.880557 7.76112,-6.085417 3.0868,-2.99861 6.70277,-4.14514 10.84791,-4.233333 0.26459,0 0.61736,-0.08819 1.23472,-0.08819 -3.79236,-0.97014 -7.32013,-1.940279 -10.93611,-2.822223 -1.32291,-0.352777 -2.29305,-0.97014 -3.0868,-2.116667 -2.46945,-3.439583 -4.93889,-6.879166 -7.49653,-10.230556 -0.97014,-1.234721 -0.79375,-1.940277 0.61736,-2.645833 3.70417,-1.852084 7.32014,-3.880554 10.93611,-5.732638 1.14653,-0.529166 1.14653,-0.970139 0.17639,-1.763889 -2.99861,-2.55764 -5.99722,-5.115277 -8.90764,-7.672917 -1.05833,-0.881944 -1.41111,-0.61736 -1.85208,0.440973 -1.14653,2.557637 -2.29306,5.027083 -3.43958,7.584721 -0.88195,1.763889 -1.14653,1.852083 -2.64584,0.529166 -3.61597,-3.351387 -7.23194,-6.614583 -10.93611,-9.96597 -0.17639,-0.17639 -0.35278,-0.35278 -0.52917,-0.617363 0.97014,-0.529167 1.5875,0.264583 2.11667,0.79375 3.175,2.822223 6.35,5.73264 9.525,8.643056 0.97014,0.97014 1.41111,0.881944 1.94028,-0.352777 1.05833,-2.645833 2.38125,-5.115279 3.43958,-7.761112 0.61736,-1.322917 1.32292,-1.411111 2.38125,-0.440971 2.73403,2.38125 5.46806,4.674304 8.11389,7.055554 0.79375,0.705556 1.49931,0.79375 2.55764,0.352779 5.37986,-2.557639 10.84792,-4.938889 16.31597,-7.408333 0.35278,-0.17639 0.70556,-0.264583 1.05834,-0.617363 3.26319,-3.439582 6.43819,-6.96736 9.78958,-10.318749 1.23472,-1.146528 0.88194,-1.499305 -0.52917,-2.028472 -4.40972,-1.763889 -8.90764,-3.615972 -13.31736,-5.468056 -0.61736,-0.176389 -1.41111,-0.176389 -1.4993,-1.058333 -0.0882,-0.79375 0.70555,-0.970139 1.23472,-1.322917 3.88055,-2.293055 7.8493,-4.586111 11.72986,-6.967361 1.41111,-0.881944 1.94028,-0.440972 2.11667,0.970139 0.70555,4.233333 1.41111,8.378472 2.02847,12.7 0.17639,1.499306 0.79375,1.411111 1.76389,0.705556 3.61597,-2.645834 7.23194,-5.203473 10.75972,-7.9375 1.67569,-1.322917 2.99861,-1.5875 4.85069,-0.352778 3.35139,2.116667 6.79099,3.880555 10.23057,5.820833 1.32292,0.617361 2.38125,1.499306 3.35137,2.557639 3.79238,3.96875 7.49655,7.9375 11.37708,11.818056 1.23473,1.234723 1.41113,2.20486 0.44098,3.79236 -2.29306,3.35139 -4.40973,6.879167 -6.52639,10.49514 -0.70554,1.234723 -1.76387,1.852083 -3.175,2.028473 -4.85069,0.705554 -9.78959,1.499304 -14.64027,2.20486 -0.17639,0 -0.26459,0.17639 -0.35278,0.17639 7.05555,3.351387 11.72986,9.701387 17.63888,14.463887 0.97015,0.705556 0.70556,1.411113 -0.26458,2.028473 -4.93887,2.910417 -9.78959,5.820833 -14.64027,8.73125 -0.79375,0.529167 -1.6757,0.61736 -2.55764,0.61736 -2.29306,0 -4.67431,0 -6.96736,0 0,0.17639 -0.0882,0.35278 -0.0882,0.529167 3.08681,0.97014 6.17361,2.028473 9.34861,2.822223 1.85209,0.440973 2.64584,1.41111 3.08682,3.263194 0.97012,4.233333 2.02845,8.466665 3.08679,12.611815 0.44098,1.5875 0.0882,2.29305 -1.49929,2.82222 -4.67432,1.32292 -9.34862,2.91042 -13.93473,4.40972 -0.26459,0.0882 -0.61736,0.0882 -0.79375,0.52917 1.94027,1.14653 3.96875,2.38125 5.90902,3.61597 2.29306,1.23472 4.49792,2.55764 6.70279,3.88056 0.88194,0.52916 1.32292,1.14652 0.70554,2.11666 -2.38125,4.49792 -4.76249,8.99584 -7.14374,13.58195 -0.44097,0.88194 -1.14653,0.97014 -2.02847,0.97014 -2.91042,0 -5.73264,0 -8.73125,0 0.0882,0.35277 0.17638,0.52916 0.17638,0.52916 2.73403,0.0882 4.49792,1.5875 6.08542,3.79236 2.38125,3.61598 5.11528,6.87917 7.67292,10.31875 1.6757,2.20486 1.6757,2.20486 -0.88195,3.52778 -2.38125,1.32292 -4.7625,2.73403 -7.32014,3.79236 -2.11666,0.97014 -3.26319,2.73403 -4.58611,4.67431 2.29306,0.26458 3.175,1.41111 2.91042,3.52778 -0.0882,0.88194 0.52917,1.14652 1.23472,1.05833 1.23472,0 2.46945,0.0882 3.70417,0.0882 0.97014,0 1.4993,0.44098 1.76389,1.41111 1.23472,4.8507 2.55764,9.70139 3.88055,14.55209 0.17639,0.97014 0,1.67569 -0.88194,2.20486 -2.46945,1.5875 -4.8507,3.175 -7.49653,4.93889 3.2632,1.14653 6.26181,2.20486 9.26041,3.26319 2.29306,0.70556 4.49792,1.5875 6.87917,2.20486 1.5875,0.52917 1.76389,1.32292 1.05833,2.73403 -1.67569,3.79236 -3.35137,7.67292 -4.93887,11.46528 -0.1764,0.44097 -0.70557,0.97014 -0.26458,1.41111 0.35276,0.35278 0.88193,0.0882 1.32291,-0.0882 1.5875,-0.70556 2.64584,-0.17639 3.52777,1.32291 2.55765,4.23334 5.11527,8.29028 7.84932,12.34722 0.88193,1.41112 0.70553,2.29306 -0.52917,3.2632 -1.67571,1.41111 -3.3514,2.82222 -4.85071,4.32153 -0.52917,0.52916 -1.67569,0.79375 -1.23471,1.67569 0.52917,0.97014 0.97012,2.20486 2.38125,2.38125 2.64584,0.44097 5.20346,0.97014 7.84929,1.32292 1.5875,0.17639 2.02848,0.97014 1.85208,2.46944 -0.52916,4.93889 -0.97012,9.78959 -1.4111,14.72847 -0.0882,1.05834 -0.52917,1.6757 -1.49931,2.11667 -4.14512,1.76389 -8.20209,3.61597 -12.25902,5.37986 -0.35277,0.17639 -0.88194,0.52917 -1.23473,-0.0882 -0.44096,-0.70556 0.35279,-0.79375 0.70556,-1.05834 3.175,-1.5875 6.26182,-3.175 9.43682,-4.7625 1.05833,-0.44097 1.32291,-0.97013 0.97012,-2.11666 -1.32292,-4.40972 -2.46944,-8.81945 -3.70417,-13.22917 -0.97012,-3.35139 -2.55762,-4.40972 -5.9972,-4.40972 -1.32292,-0.0882 -1.85209,1.05833 -2.73405,1.67569 -0.88194,0.52917 -1.4111,2.02848 -2.55762,1.49931 -0.97015,-0.52917 -0.26458,-1.85208 -0.26458,-2.82222 -0.0882,-2.38125 0.17637,-2.55764 2.64583,-2.02848 0.97012,0.17639 1.76387,0.35278 2.64583,-0.35277 1.23471,-0.88195 1.5875,-1.6757 0.79375,-3.175 -2.11666,-4.05695 -3.96875,-8.20209 -5.90904,-12.34723 -0.44096,-0.97013 -0.97013,-1.41111 -2.11666,-1.4993 -2.99861,-0.26458 -6.08542,-0.79375 -9.08403,-0.88195 -1.94028,-0.0882 -2.46944,-0.97013 -2.64583,-2.64583 -0.44098,-4.32153 -0.97014,-8.55486 -1.41111,-12.78819 -0.0882,-0.52917 0.0882,-1.32292 -0.61737,-1.49931 -0.79375,-0.17639 -0.88194,0.61736 -1.23472,1.05833 -1.32291,2.02848 -2.64583,4.14514 -3.96875,6.26181 -0.35278,0.52917 -0.52916,1.14653 -1.23472,1.41111 -0.17639,-0.17639 -0.35278,-0.35278 -0.52917,-0.52917 z M 244.62503,84.496805 c 0.61737,0.17639 0.79375,0.17639 1.05834,0.264583 4.85069,0.705557 9.61319,1.499307 14.46389,2.204861 1.41111,0.176389 2.20486,0.79375 2.73402,2.204862 1.23473,3.527777 2.55764,7.055554 3.96875,10.583334 0.44098,1.234725 0.26459,2.116665 -0.88194,2.910415 -4.58611,3.175 -8.99583,6.4382 -13.49375,9.6132 -0.79375,0.52916 -2.11667,0.97014 -1.94028,1.76389 0.17639,0.97013 1.49931,1.4993 2.46945,2.02847 0.44097,0.26458 0.97014,0.26458 1.4993,0.44097 5.90903,1.14653 11.72986,2.38125 17.5507,3.52778 1.4993,0.26458 1.94027,0.88194 1.4993,2.46944 -1.14653,4.49792 -2.20486,8.99584 -3.26319,13.49375 3.79236,0 7.58472,-0.0882 11.28889,0 0.97014,0 1.32291,-0.61736 1.67569,-1.32291 2.02847,-3.88056 4.05695,-7.76112 6.26181,-11.64167 0.52916,-1.05833 0.35277,-1.5875 -0.70557,-2.20486 -3.88054,-2.20486 -7.67291,-4.49792 -11.46527,-6.79097 -0.88194,-0.44098 -1.67569,-1.05834 -2.73402,-0.52917 -0.97014,0.35278 -1.05834,-0.61736 -1.41112,-1.05833 -0.26458,-0.35278 -0.35277,-0.97014 0.17639,-1.41112 0.52917,-0.44097 1.05834,0 1.41111,0.26459 0.79375,0.61736 1.5875,0.52916 2.46945,0.17639 4.6743,-1.49931 9.34861,-2.99861 14.11111,-4.40973 1.23473,-0.44097 1.5875,-0.88194 1.23473,-2.29305 -1.05833,-4.05695 -2.11666,-8.290281 -3.08681,-12.435419 -0.26459,-1.058333 -0.79375,-1.5875 -1.85209,-1.940279 -4.40972,-1.234721 -8.73125,-2.557637 -12.96458,-3.880554 -0.52917,-0.17639 -1.23472,-0.264583 -1.14653,-0.881946 0.0882,-0.79375 0.79375,-0.529167 1.23472,-0.529167 3.61598,-0.176387 7.14375,-0.264583 10.75973,-0.352777 0.61736,0 1.23472,-0.08819 1.85208,-0.440973 4.49792,-2.734027 8.99583,-5.468054 13.58194,-8.113887 0.97014,-0.617363 1.05833,-0.97014 0.17639,-1.76389 -3.26318,-2.910416 -6.61458,-5.732639 -9.70139,-8.73125 -2.38125,-2.469443 -5.20347,-4.145139 -8.55486,-4.7625 -0.52916,-0.176389 -1.32291,-0.264583 -1.32291,-0.970139 0,-0.970138 0.97014,-0.705554 1.4993,-0.79375 5.90903,-0.970138 11.81805,-1.852084 17.7271,-2.645834 0.61735,-0.08819 0.88193,-0.352777 1.14651,-0.705554 2.29307,-3.792362 4.58611,-7.584723 6.96736,-11.288889 0.61738,-0.97014 0.44098,-1.5875 -0.35277,-2.38125 -4.05694,-4.233334 -8.1139,-8.554861 -12.08265,-12.788195 -0.35277,-0.352778 -0.61735,-0.529166 -0.97012,-0.705555 -2.91042,-1.675695 -6.08542,-2.998611 -8.73126,-4.938889 -3.43958,-2.557639 -5.82083,-1.940278 -9.08403,0.529166 -7.49653,5.468056 -14.72847,11.024306 -20.81389,18.079862 -0.79375,0.970138 -1.85208,1.5875 -2.99861,2.028471 -4.6743,2.116667 -9.26042,4.233333 -13.93472,6.261806 -0.44097,0.264584 -1.05833,0.264584 -1.23472,1.058334 3.79236,2.20486 7.49652,4.497916 11.37708,6.614583 4.7625,2.55764 9.61319,5.115277 14.46389,7.584723 0.97014,0.529167 1.67569,1.146527 0.52917,2.116667 -6.35,5.37986 -11.64167,11.994443 -19.31459,15.69861 -0.35278,0.17639 -0.61736,0.352777 -1.14653,0.79375 z m -76.1118,160.866665 c -1.05833,-0.17639 -1.6757,-0.17639 -2.20486,-0.26458 -2.64584,-0.35278 -2.82222,0 -2.82222,-3.26319 0,-4.23334 0.0882,-8.46667 0.0882,-12.7 0,-0.88195 -0.0882,-1.5875 -1.14653,-1.94028 -3.0868,-0.97014 -6.2618,-2.02847 -9.34861,-2.99861 -0.52917,-0.17639 -1.05833,-0.26459 -1.41111,0.26458 -2.02847,2.29306 -4.49792,4.05694 -6.79097,6.08542 -5.02709,4.23333 -9.96597,8.55486 -15.78681,11.64166 -1.67569,0.88195 -3.26319,1.76389 -4.6743,2.82223 -2.73403,1.85208 -5.46806,3.26319 -8.81945,2.38125 -1.05833,-0.35278 -1.67569,0.17638 -2.20486,1.14652 -1.23472,2.46945 -2.55764,4.93889 -3.88056,7.32014 -0.44097,0.88195 -0.44097,1.41111 0.26459,2.11667 3.70416,3.79236 7.40833,7.58472 11.0243,11.37708 0.79375,0.88195 1.32292,0.88195 2.20486,0.17639 3.88056,-2.64583 7.76112,-5.37986 11.55348,-8.02569 0.70555,-0.44098 1.32291,-0.88195 2.29305,-0.70556 1.5875,0.26458 3.2632,0.26458 4.8507,0.70556 1.41111,0.35277 2.29305,-0.0882 3.175,-1.14653 2.38125,-2.82222 4.85069,-5.46806 7.23194,-8.20208 0.97014,-1.14653 2.11667,-1.94028 3.61597,-2.38125 4.05695,-1.41112 8.20209,-2.82223 12.7882,-4.40973 z m -53.53403,0.61736 c 2.82222,0.88195 5.29167,0.44098 7.76111,-1.23472 3.79236,-2.55764 7.76111,-4.6743 11.64167,-7.05555 0.97014,-0.61736 2.02847,-1.14653 2.91042,-1.94028 4.40972,-4.14514 8.90763,-8.11389 13.40555,-12.25903 -0.97014,-0.35278 -1.32292,-1.05833 -1.4993,-2.11667 -0.52917,-3.52777 -1.14653,-6.96736 -1.6757,-10.40694 -0.17639,-1.32292 -0.70555,-2.20486 -2.02847,-2.82222 -2.11667,-0.88195 -4.23333,-2.02847 -6.26181,-3.08681 -0.61736,-0.35278 -1.14652,-0.35278 -1.76389,0.0882 -3.96875,2.82222 -8.02569,5.55625 -12.08264,8.20208 -1.23472,0.88194 -2.46944,1.85208 -3.43958,2.99861 -3.0868,3.70417 -6.2618,7.32014 -9.34861,11.02431 -1.05833,1.32291 -2.29306,2.20486 -3.96875,2.73402 -4.05694,1.49931 -8.20208,3.08681 -12.435424,4.67431 1.49931,1.76389 2.99861,3.35139 4.321534,5.11528 0.70556,0.88194 1.32292,0.97014 2.38125,0.52916 4.7625,-1.94027 9.6132,-3.79236 14.3757,-5.64444 0.52916,-0.17639 1.05833,-0.70556 1.67569,-0.26458 0.70556,0.52916 0.17639,1.23472 0,1.76389 -0.52917,2.55763 -1.41111,4.93888 -2.73403,7.23194 -0.52916,0.79375 -1.05833,1.49931 -1.23472,2.46944 z M 85.875026,219.87528 c 0.70556,-0.17639 1.49931,-0.44097 2.20486,-0.61736 4.05695,-1.23472 8.20209,-2.46945 12.259034,-3.61597 0.52917,-0.17639 1.23472,-0.70556 1.76389,0 0.70556,0.70555 -0.0882,1.23472 -0.44097,1.85208 -2.469454,4.14514 -5.027084,8.29028 -7.584724,12.43542 -0.52917,0.97013 -0.79375,1.67569 0.0882,2.64583 0.88194,0.88194 1.4993,1.23472 2.82222,0.70555 3.968754,-1.5875 8.113894,-3.0868 12.170834,-4.58611 0.79375,-0.26458 1.41111,-0.70555 1.94028,-1.32291 2.91042,-3.43959 5.82083,-6.79098 8.73125,-10.23056 1.76389,-2.11667 3.70417,-3.96875 6.08542,-5.46805 3.35138,-2.11667 6.61458,-4.49792 9.96596,-6.70278 1.05834,-0.61736 1.23473,-1.14653 -0.0882,-1.5875 -4.40972,-1.49931 -7.32014,-4.67431 -9.70139,-8.46667 -0.79375,-1.41111 -1.76388,-2.64583 -2.73402,-3.88055 -0.70556,-0.97014 -1.05834,-1.94028 -1.14653,-3.08681 -0.0882,-0.88194 0.35278,-2.20486 -0.35278,-2.46944 -0.97014,-0.26459 -1.94028,0.61736 -2.82222,1.14652 -0.44097,0.17639 -0.70556,0.61736 -1.05833,0.88195 -7.05556,6.79097 -14.02292,13.58194 -21.872234,19.40278 -4.58611,3.35138 -6.96736,8.46666 -10.23055,12.96458 z m 68.262504,-31.39722 c 1.23473,-1.94028 2.38125,-3.52778 3.43959,-5.29167 0.61736,-0.97014 1.32291,-1.41111 2.55764,-1.23472 5.55625,0.70555 11.1125,1.23472 16.66875,1.94028 1.14652,0.0882 1.4993,-0.17639 1.67569,-1.23473 0.97014,-5.02708 2.02847,-10.14236 3.08681,-15.16944 0.17639,-0.88195 0,-1.41111 -0.61736,-1.94028 -3.52778,-2.99861 -6.96737,-5.99722 -10.49514,-8.99583 -0.79375,-0.79375 -1.14653,-0.70556 -1.32292,0.44097 -0.52917,3.08681 -1.23472,6.08542 -1.76389,9.17222 -0.17639,1.32292 -0.70555,1.76389 -2.11667,1.5875 -5.29166,-0.61736 -10.67152,-1.14653 -16.05138,-1.76389 -1.49931,-0.17639 -2.55764,0.0882 -3.70417,1.32292 -1.6757,1.76389 -2.55764,3.43958 -1.94028,5.90903 0.26458,0.97014 0.26458,2.11666 0.17639,3.175 -0.0882,1.76389 0.52917,2.82222 2.38125,3.26319 1.14653,0.17639 2.20486,0.70556 3.35139,1.05834 1.05833,0.26458 1.67569,0.88194 2.11667,1.94027 0.70555,1.85209 1.5875,3.61598 2.55763,5.82084 z m -11.90625,-21.07848 c -0.17638,-1.94027 -0.26458,-3.79236 -0.35277,-5.55625 0,-0.70555 -0.26459,-1.23472 -0.61736,-1.76388 -3.35139,-4.32153 -6.70278,-8.55487 -9.96598,-12.87639 -0.52916,-0.61736 -0.79375,-0.70556 -1.4993,-0.17639 -4.05695,2.91041 -8.11389,5.82083 -12.17084,8.73125 -0.88194,0.61736 -0.88194,1.14653 -0.52916,2.02847 0.79375,1.76389 1.4993,3.52778 2.11666,5.37986 1.32292,3.61597 3.2632,7.05556 3.35139,11.02431 0,2.64583 0.26459,5.20347 0.35278,7.76111 0,1.14653 0.26458,1.41111 1.41111,0.88194 5.99722,-2.55764 11.99445,-5.20347 15.78681,-11.0243 0.17639,-0.35278 0.52916,-0.70556 0.79375,-0.97014 1.05833,-0.97014 1.67569,-2.02847 1.32291,-3.43959 z m 0.17639,4.05695 c -0.17639,-0.0882 -0.35277,-0.17639 -0.44097,-0.26458 -0.26458,0.26458 -0.44097,0.61736 -0.61736,0.88194 -3.79236,5.37986 -8.99583,8.90764 -15.08125,11.20069 -3.35139,1.23473 -3.61597,2.02848 -2.99861,5.55625 0.17639,0.70556 0.61736,1.23473 1.05833,1.76389 3.52778,4.7625 6.26181,10.31875 12.61181,12.17084 0,0 0.0882,0 0.0882,0.0882 0.61736,0.44097 1.05834,0.35278 1.6757,-0.0882 4.14514,-3.35139 8.29027,-6.61459 12.34722,-9.96598 2.02847,-1.67569 2.20486,-3.175 1.41111,-5.64444 -1.14653,-3.88056 -3.43958,-6.35 -7.58472,-6.87917 -1.32292,-0.26458 -2.02847,-1.05833 -2.02847,-2.55764 0,-2.11666 -0.26459,-4.23333 -0.44098,-6.2618 z m 133.52639,24.34167 c -0.0882,0.26458 -0.17639,0.52916 -0.26458,0.70555 -1.05833,1.76389 -2.64583,3.175 -0.97014,5.64445 0.70556,0.97013 0.35278,2.73402 0.52917,4.05694 0.35277,3.26319 0.70555,6.43819 1.05833,9.70139 0.0882,0.35278 0,0.79375 0.52917,0.97014 0.26458,0.17639 0.61736,0.17639 0.70555,-0.17639 0.26459,-0.97014 1.05834,-0.79375 1.76389,-0.97014 2.91042,-0.70556 5.90903,-1.49931 8.81945,-2.11667 0.88194,-0.26458 1.49929,-0.61736 1.85209,-1.4993 1.67568,-4.14514 3.52777,-8.29028 5.29167,-12.43542 0.52916,-1.14653 0.26458,-1.4993 -0.88197,-1.85208 -5.11527,-1.6757 -10.23054,-3.43959 -15.25763,-5.20347 -0.79375,-0.26459 -1.32291,-0.26459 -1.94028,0.26458 -1.05833,0.70555 -2.82222,1.14653 -1.23472,2.91042 z m -136.70139,8.11388 c 2.46945,1.23473 4.8507,2.46945 7.23195,3.61598 1.14653,0.52916 1.76389,1.23472 1.94028,2.46944 0.52916,3.70417 1.14652,7.40833 1.85208,11.1125 0.0882,0.52917 0.0882,1.05833 0.79375,1.32292 0.79375,0.26458 1.14653,-0.26459 1.4993,-0.61736 1.49931,-1.76389 2.99862,-3.43959 4.67431,-5.11528 0.88194,-0.88195 0.88194,-1.6757 0.26458,-2.73403 -1.67569,-3.35139 -3.26319,-6.70278 -4.93889,-10.05417 -0.70555,-1.41111 -0.61736,-2.38125 0.61737,-3.35138 1.05833,-0.79375 1.85208,-1.76389 2.82222,-2.64584 0.35278,-0.35278 0.88194,-0.70555 0.52916,-1.32291 -0.79375,-1.85209 -1.5875,-3.70417 -2.46944,-5.55625 -4.32153,5.11527 -9.96597,8.37847 -14.81667,12.87638 z m 124.79514,-18.87361 c 3.2632,2.91042 6.35,5.46806 9.34861,8.20209 0.44098,0.35277 0.61736,0.0882 0.88195,-0.0882 3.70416,-2.55764 7.76111,-4.58611 11.46528,-7.23194 0.88194,-0.61736 0.88194,-1.14653 0.61736,-2.02847 -0.97014,-3.61598 -1.85209,-7.23195 -2.82223,-10.84792 -0.97013,-3.70417 -0.97013,-3.70417 -4.85069,-3.61597 -1.14653,0 -1.41111,0.44097 -1.32292,1.4993 0.26459,2.91042 0.35278,5.82084 0.61736,8.73125 0.17639,1.76389 -0.17638,2.55764 -2.02847,2.91042 -3.88055,0.70555 -7.76111,1.5875 -11.90625,2.46944 z M 210.40559,214.76 c 1.41111,0.17639 1.14653,-0.88194 1.23472,-1.67569 0.26459,-3.2632 0.52917,-6.52639 0.79375,-9.78959 0,-0.97014 0.35278,-1.85208 1.32292,-2.20486 1.14653,-0.52916 1.32292,-0.97014 0.35278,-1.94028 -2.91042,-2.91041 -1.85209,-2.64583 0.26458,-4.6743 0.0882,-0.0882 0.17639,-0.17639 0.26458,-0.26458 0.26459,-0.26459 0.97014,-0.44098 0.52917,-1.05834 -0.26458,-0.44097 -0.70556,-0.0882 -1.05833,0.0882 -4.67431,1.67569 -9.26042,3.43958 -13.84653,5.11527 -1.05833,0.35278 -1.23472,0.79375 -0.70556,1.76389 2.02848,3.79236 4.14514,7.49653 5.82084,11.46528 1.05833,2.55764 2.91041,2.82222 5.02708,3.175 z m 69.05625,2.38125 c 0,0 0,0.0882 0,0.17639 2.46944,0.26458 4.85069,0.52917 7.32014,0.70556 1.5875,0 2.55763,0.61736 3.26319,2.11666 1.94027,4.23334 3.96875,8.46667 5.99724,12.7 0.44095,0.88195 0.79375,0.97014 1.49928,0.35278 1.67572,-1.5875 3.3514,-3.08681 5.1153,-4.58611 0.88193,-0.70556 0.79375,-1.14653 0.26458,-1.94028 -2.55765,-3.96875 -4.9389,-7.8493 -7.49654,-11.72986 -0.35277,-0.61736 -0.52917,-1.85208 -1.5875,-1.5875 -1.41111,0.44097 -3.26319,0 -3.96875,1.76389 -0.44096,1.05833 -1.23471,1.32292 -2.20486,1.41111 -2.73402,0.17639 -5.46805,0.35278 -8.20208,0.61736 z m -21.87222,-73.90694 c 2.11666,0.0882 3.52778,-0.44098 5.02708,-0.52917 1.32292,-0.0882 2.55764,-0.79375 3.96875,0 4.8507,2.82222 9.78958,5.55625 14.64028,8.29028 1.23472,0.61736 1.32292,1.32291 0.44097,2.38125 -1.05833,1.32291 -2.02847,2.73403 -3.0868,4.14514 2.46944,-0.97014 4.7625,-2.20486 7.14375,-3.35139 1.05833,-0.44097 1.05833,-0.88195 0.44097,-1.76389 -2.20486,-2.73403 -4.40972,-5.37986 -6.26181,-8.29028 -2.20486,-3.61597 -5.02708,-5.82083 -9.34861,-5.90903 -0.79375,0 -1.4993,-0.26458 -2.20486,-0.44097 -0.44097,-0.0882 -0.79375,-0.17639 -1.23472,0.0882 -2.99861,1.67569 -6.08542,3.43958 -9.525,5.37986 z m -62.52986,87.13611 c 1.05833,-2.55764 2.02847,-5.11528 2.99861,-7.67292 0.44097,-1.14653 1.14653,-1.67569 2.29305,-1.85208 3.08681,-0.35278 6.17361,-0.79375 9.26042,-1.05834 1.76389,-0.17638 1.41111,-1.41111 1.67569,-2.38125 0.26459,-1.23472 -0.44097,-1.4993 -1.41111,-1.67569 -3.175,-0.61736 -6.43819,-1.14653 -9.61319,-1.85208 -1.14653,-0.26459 -1.6757,0.0882 -2.20486,1.05833 -1.49931,2.99861 -3.175,5.99722 -4.8507,8.99583 -2.11666,3.88056 -2.11666,3.88056 1.85209,6.4382 z m 29.36875,-44.5382 c -3.70417,-0.70555 -6.96736,-1.41111 -10.23056,-1.94027 -1.4993,-0.26459 -2.29305,-0.79375 -2.20486,-2.46945 0.0882,-2.29305 -0.0882,-4.58611 -0.26458,-6.87917 0,-0.52916 0.35277,-1.41111 -0.44098,-1.4993 -0.88194,-0.0882 -0.79375,0.88194 -0.88194,1.41111 -0.70556,3.88056 -1.32292,7.76111 -2.02847,11.64167 -0.17639,0.88194 0,1.41111 0.79375,1.85208 1.85208,1.23472 3.52778,2.46944 5.37986,3.61597 0.79375,0.52917 1.76389,1.14653 2.73403,0.35278 2.29305,-1.85208 4.58611,-3.88056 7.14375,-6.08542 z m 37.74722,-0.35277 c -2.38125,0.52916 -2.55764,0.0882 -2.82222,2.64583 -0.0882,0.70555 -0.0882,1.41111 -0.26459,2.11667 -0.0882,0.70555 0.0882,1.23472 0.70556,1.5875 3.96875,2.38125 7.8493,4.7625 11.72986,7.14375 0.44097,0.26458 0.88194,0.61736 1.32292,-0.0882 0.52916,-0.88194 1.05833,-1.67569 1.5875,-2.46944 0.26458,-0.35278 0.26458,-0.70556 -0.0882,-0.97014 -0.35278,-0.44097 -0.61736,-0.35278 -1.05833,-0.0882 -0.26458,0.26459 -0.61736,0.52917 -0.97014,0.70556 -0.35278,0.17639 -0.79375,0.70555 -1.14653,0.0882 -0.44097,-0.61736 0.0882,-0.88194 0.44097,-1.05833 1.32292,-0.70556 0.97014,-1.23472 0.0882,-2.02847 -2.73403,-2.29306 -5.46806,-4.67431 -8.11389,-6.96736 -0.44097,-0.35278 -0.79375,-0.79375 -1.41111,-0.61736 z M 251.41601,23.289861 c 5.02708,1.940277 9.70139,3.880555 14.55208,5.820833 -0.44097,-3.263195 -0.97014,-6.173611 -1.32292,-9.172222 -0.61736,-4.233334 -0.52916,-4.233334 -4.23333,-2.028473 -2.91042,1.763889 -5.82083,3.439584 -8.99583,5.379862 z m 48.41875,215.723609 c 1.4111,1.94028 1.7639,3.88056 2.29306,5.64445 1.14652,3.96875 2.20485,7.9375 3.35137,11.90625 0.0882,0.26458 0,0.88194 0.70557,0.79375 0.35277,-0.0882 0.70556,-0.26459 0.70556,-0.79375 0.44096,-5.02709 0.97012,-10.05417 1.4111,-15.08125 0,-0.52917 0.0882,-1.05834 -0.70556,-1.14653 -2.46944,-0.44097 -4.85069,-0.88194 -7.7611,-1.32292 z m -69.85,-49.56527 c -0.26459,-0.97014 0.52916,-2.29306 -0.97014,-2.73403 -1.85209,-0.52917 -3.61597,-0.88195 -5.20347,0.97014 -0.97014,1.23472 -2.29306,2.11666 -3.52778,3.175 -2.73403,2.38125 -2.73403,2.29305 0.0882,4.40972 0.97014,0.79375 1.6757,0.97014 2.73403,0.26458 1.76389,-1.23472 3.61597,-2.29305 5.46806,-3.26319 1.23472,-0.70556 1.76388,-1.49931 1.41111,-2.82222 z m -7.32014,-18.16806 c 0.17639,-0.35278 0.35278,-0.61736 0.44097,-0.88194 -1.76389,-1.6757 -3.61597,-3.2632 -5.46806,-4.8507 -0.35277,-0.35278 -0.70555,-0.61736 -1.23472,-0.44097 -3.175,0.61736 -3.61597,1.05833 -3.61597,4.32153 0.0882,0.52916 0.0882,0.97014 0.0882,1.4993 0,0.61736 0.26459,0.88195 0.88195,0.88195 2.91042,-0.17639 5.90903,-0.35278 8.90764,-0.52917 z M 82.347256,222.43292 c -1.14653,-0.17639 -1.76389,0.35278 -2.46945,0.44097 -1.67569,0.17639 -2.29305,1.05833 -2.64583,2.64583 -0.88195,3.52778 -1.94028,6.96736 -2.91042,10.49514 -0.0882,0.52917 -0.52917,1.05834 -0.0882,1.5875 3.08681,-0.79375 2.99861,-0.79375 3.88056,-3.79236 1.05833,-3.88055 1.23472,-8.02569 4.23333,-11.37708 z m -39.7757,-45.15556 c 1.14653,4.40972 2.11667,8.29028 3.2632,12.52361 1.5875,-2.46944 2.99861,-4.49791 4.40972,-6.52639 0.44097,-0.70555 0.26458,-1.05833 -0.35278,-1.41111 -2.29306,-1.41111 -4.67431,-2.91041 -7.32014,-4.58611 z m 144.021534,76.46459 c 1.5875,-4.7625 0.70556,-9.70139 4.05694,-13.31737 -2.11666,0.17639 -4.05694,0.52917 -6.08541,0.88195 -0.70556,0.17639 -0.70556,0.70555 -0.61736,1.14653 0.88194,3.61597 1.67569,7.23194 2.64583,11.28889 z M 201.67434,236.985 c -1.94028,-1.5875 -3.70417,-2.91042 -5.37986,-4.23333 -0.44097,-0.35278 -0.79375,-0.52917 -1.05833,0.17639 -0.70556,1.85208 -1.41112,3.61597 -2.20487,5.73264 2.73403,-0.44098 5.11528,-0.88195 7.49653,-1.32292 0.26459,0 0.52917,-0.17639 1.14653,-0.35278 z m 14.55208,-37.39444 c 1.32292,-0.79375 2.73403,-1.6757 4.05695,-2.55764 0.26458,-0.17639 0.0882,-0.44097 -0.0882,-0.61736 -1.41111,-2.02848 -3.61597,-2.38125 -5.37986,-0.79375 -0.44097,0.35277 -1.41111,0.61736 -1.05833,1.41111 0.61736,0.97014 1.41111,1.85208 2.46944,2.55764 z m 54.50417,-31.30903 c 1.76389,0 3.08681,0 4.40972,0 0.35278,0 0.88195,0.0882 0.79375,-0.35278 0,-0.97014 0.52917,-2.11667 -0.61736,-2.73403 -0.88194,-0.44097 -1.94028,-0.97014 -2.73403,0.52917 -0.35277,0.79375 -1.05833,1.49931 -1.85208,2.55764 z m -76.37639,93.30972 c 0,-0.0882 0.0882,-0.17639 0.0882,-0.26458 -1.94028,-1.05834 -3.79237,-2.20486 -5.73264,-3.2632 -0.44098,-0.17639 -0.79375,-0.70555 -1.32292,-0.35277 -0.52917,0.35277 -0.26458,1.05833 -0.35278,1.5875 -0.17639,0.79375 0.52917,0.61736 0.97014,0.70555 2.11667,0.52917 4.23333,1.05833 6.35,1.5875 z"
       id="path388" />
    <path
       style="fill:#000000;fill-opacity:1;fill-rule:nonzero;stroke:none;stroke-width:0.264583"
       d="m 319.76669,154.435 c 0.70557,1.85208 0.44098,3.79236 0.52917,5.73264 0.0882,2.11667 0,4.23333 0,6.35 5.64446,-0.70556 11.1125,-1.32292 16.49238,-2.02847 1.76387,-0.26459 2.91042,0.0882 3.96875,1.67569 2.11667,3.175 4.49792,6.17361 6.70277,9.26042 0.61735,0.88194 1.32291,1.14653 2.29306,0.97014 0.0882,-0.0882 0.26459,-0.0882 0.35277,-0.0882 4.49792,-0.88194 4.49792,-0.88194 4.67432,-5.46805 0.17637,-4.49792 0.35276,-8.90764 0.44095,-13.40556 0,-1.32291 0.3528,-2.38125 1.14655,-3.35139 3.52776,-4.49791 7.05553,-8.99583 10.49512,-13.49375 0.79375,-1.14652 1.49931,-1.23472 2.64583,-0.52916 5.1153,2.99861 10.23056,5.99722 15.34583,8.90764 1.14655,0.61736 1.32292,1.32291 0.70557,2.46944 -2.11667,4.32153 -4.14515,8.64306 -6.26182,12.96458 -0.61735,1.32292 -0.97012,2.64584 -0.97012,4.05695 -0.1764,4.93889 -0.35279,9.87778 -0.44098,14.81666 0,2.02848 -0.52917,3.52778 -2.02848,4.93889 -3.08679,3.08681 -2.9986,3.08681 -0.0882,6.26181 1.05834,1.23472 2.29307,2.20486 3.61599,2.99861 2.91041,1.76389 5.64443,3.70417 8.55485,5.29167 3.26318,1.67569 5.82083,3.96875 7.49652,7.23194 1.32291,2.46945 3.175,3.96875 6.17363,4.05695 3.26318,0 6.26178,1.23472 9.26041,2.46944 3.43959,1.41111 6.96735,2.73403 10.49512,4.05694 1.32292,0.44098 1.9403,1.23473 2.29307,2.55764 0.88193,3.175 1.94027,6.4382 2.82223,9.6132 0.17637,0.52916 0.26458,1.14653 0.79375,1.76389 1.2347,-2.99861 2.29304,-5.90903 3.43958,-8.73125 0.35277,-0.88195 -0.35279,-1.32292 -0.79375,-1.76389 -3.08681,-3.08681 -6.08541,-6.17361 -9.26041,-9.26042 -1.14655,-1.14653 -1.32292,-1.94028 -0.0882,-3.175 2.55765,-2.55764 2.55765,-2.64583 0.61738,-5.82083 -2.02848,-3.43959 -4.23333,-6.79097 -6.17363,-10.23056 -0.70553,-1.23472 -1.32291,-1.32291 -2.46943,-0.97014 -2.9986,1.05834 -5.99723,1.94028 -8.90765,2.82223 -0.52917,0.17638 -1.05833,0.52916 -1.4111,-0.0882 -0.35277,-0.61736 0.26458,-0.88194 0.70556,-1.23472 2.9986,-2.73403 6.08542,-5.46806 9.17221,-8.20208 0.70556,-0.52917 1.32291,-0.70556 2.29306,-0.61737 4.7625,0.52917 9.525,0.97014 14.2875,1.5875 1.23473,0.17639 1.5875,-0.26458 1.85208,-1.14652 0.52917,-1.41111 1.14652,-2.73403 1.67569,-4.05695 0.44098,-1.05833 0.97015,-2.02847 0,-3.0868 -0.35277,-0.44098 -0.0882,-1.05834 0.26458,-1.49931 1.05834,-1.4993 2.11667,-2.99861 3.175,-4.40972 0.1764,-0.35278 0.44098,-0.79375 0.97015,-0.52917 0.52917,0.35278 0,0.70556 -0.0882,1.05834 -0.3528,1.85208 -1.23474,3.52777 -1.9403,5.20347 -0.35277,0.79375 -0.26458,1.23472 0.1764,1.85208 2.9986,3.88056 5.99723,7.84931 9.08402,11.72986 0.70556,0.97014 0.97014,1.94028 1.05833,3.08681 0.1764,4.58611 0.44098,9.26041 0.70556,13.84653 0,0.88194 0.44099,1.4993 0.79375,2.11666 2.46944,3.70417 4.9389,7.49653 7.23194,11.28889 0.70556,0.97014 1.49931,1.5875 2.64583,1.76389 3.26322,0.70556 6.5264,1.41111 9.78959,2.11667 0.61738,0.17639 1.32291,0.17639 1.23473,0.97014 0,0.70555 -0.79375,0.61736 -1.23473,0.70555 -3.79236,0.88195 -7.49652,1.85208 -11.28887,2.64583 -1.14655,0.26459 -1.85209,0.79375 -2.46947,1.76389 -2.20485,3.35139 -4.49791,6.61459 -6.61458,9.96598 -0.79375,1.32291 -1.5875,1.5875 -3.08679,1.05833 -4.05696,-1.49931 -8.1139,-2.91042 -12.25904,-4.40972 -0.79375,-0.26459 -1.14652,-0.52917 -1.85209,0.52916 -0.61735,1.14653 -2.20485,1.49931 -3.43958,1.94028 -0.70554,0.17639 -0.88194,-0.44097 -0.70554,-1.14653 0.17637,-0.97014 1.32292,-2.02847 0.61735,-2.82222 -0.61735,-0.70555 -1.94026,-0.70555 -2.9986,-0.97014 -3.61598,-0.97014 -7.32015,-2.11666 -11.02431,-2.99861 -1.5875,-0.35278 -2.46944,-1.14653 -3.175,-2.55764 -2.82223,-5.82083 -5.46807,-11.55347 -9.3486,-16.75694 -1.05834,-1.49931 -2.20488,-2.11667 -4.14515,-1.76389 1.4111,2.82222 2.55765,5.82083 4.32152,8.29028 3.08681,4.58611 3.70416,9.17222 1.23473,14.11111 -0.44098,0.97014 -0.52917,2.02847 -0.88194,3.0868 -0.61738,2.02848 -0.79375,2.11667 -2.82223,1.41111 -1.5875,-0.52916 -3.175,-1.05833 -5.11527,-1.85208 0.97012,2.91042 1.85209,5.37986 2.82221,7.9375 0.0882,0.44097 0.70556,0.26458 1.05833,0.35278 5.46806,1.14653 10.93613,2.38125 16.40417,3.43958 1.32291,0.26459 1.85208,0.79375 1.76389,2.20486 -0.17639,1.85209 -0.26458,3.79236 -0.35276,5.64445 -0.0882,1.32291 -0.70557,2.20486 -2.11667,2.64583 -5.02708,1.49931 -9.96598,3.08681 -14.90488,4.7625 -1.2347,0.44097 -2.46944,0.44097 -3.70417,-0.0882 -3.35137,-1.32292 -6.79095,-2.46945 -10.14235,-3.70417 -1.05833,-0.44097 -1.7639,-0.35278 -2.55765,0.61736 -2.02845,2.38125 -4.14512,4.7625 -6.1736,7.14375 -0.88193,1.05833 -1.5875,1.14653 -2.73402,0.44097 -2.82223,-1.94027 -2.99863,-1.94027 -5.20348,0.61736 -2.91042,3.43959 -6.96735,4.93889 -10.9361,6.08542 -3.3514,0.97014 -7.05557,0.0882 -10.67155,0 -2.73402,0 -5.55625,-0.70555 -8.02568,0 -2.46944,0.70556 -4.05694,3.2632 -6.08542,4.93889 -1.23473,0.97015 -2.29306,2.20485 -3.61598,3.08681 -2.20485,1.41111 -2.91042,3.43959 -2.9986,5.90902 -0.0882,2.46944 -0.44098,5.02709 -0.70557,7.49652 -0.17637,1.85208 -0.70553,2.11667 -2.38125,1.32292 -7.7611,-3.88054 -15.61041,-7.58471 -22.84235,-12.43542 -1.14652,-0.70554 -1.67568,-1.49929 -1.85208,-2.73402 -0.44098,-5.02708 -1.05834,-9.96597 -1.49932,-14.90486 -0.17637,-1.67569 -0.61735,-2.91041 -2.11666,-3.88055 -3.70416,-2.46945 -7.14375,-5.11528 -10.67152,-7.67292 -1.05834,-0.70556 -1.85209,-1.67569 -2.29306,-2.91042 -0.88194,-2.02847 -1.5875,-4.14514 -2.64583,-6.08541 -2.82222,-5.11528 -3.70417,-10.67153 -4.14514,-16.22778 -0.17639,-1.5875 -0.44097,-3.08681 -0.61736,-4.58611 -0.0882,-0.61736 -0.35278,-1.23472 0.17639,-1.85209 0.17639,-0.0882 0.26458,-0.26458 0.44097,-0.44097 0.88194,3.08681 1.05833,6.26181 1.32292,9.34861 0.35277,4.67431 2.02847,8.81945 3.61597,13.14098 2.02847,5.55625 5.11528,9.96597 10.40694,12.87638 1.58751,0.88195 2.82222,2.29306 4.40972,3.175 2.20488,1.14653 2.99863,2.99862 3.175,5.37987 0.35279,4.7625 0.97014,9.525 1.49931,14.37569 0.0882,0.97015 0.44098,1.49931 1.23473,2.11667 7.14375,4.67431 14.81667,8.37848 22.40137,12.17083 0.97015,0.44098 1.23473,0.26458 1.32292,-0.88194 0.26458,-2.99863 0.70556,-5.99723 0.97015,-9.08404 0.0882,-1.23471 0.52916,-2.11667 1.49931,-2.9986 3.43959,-2.91042 6.79096,-5.82084 10.05417,-8.81945 0.97012,-0.79375 1.85208,-1.14653 3.08679,-1.05833 5.11529,0.17639 10.31875,0.35278 15.43404,0.52917 1.14652,0.0882 2.11667,-0.0882 3.08679,-0.61737 1.14655,-0.52916 2.29306,-1.23472 3.5278,-1.5875 3.08678,-0.97013 5.11526,-3.175 7.14375,-5.46805 0.52916,-0.61736 0.61735,-0.97014 -0.1764,-1.41111 -3.26319,-2.11667 -6.43819,-4.14514 -9.61319,-6.26181 -0.61738,-0.44097 -1.32291,-0.44097 -2.02848,-0.44097 -2.11667,-0.26458 -4.23333,-0.61736 -6.26181,-0.52917 -2.38125,0.0882 -4.14512,-0.79375 -5.64444,-2.55764 -2.73402,-3.0868 -5.64443,-5.99722 -8.46667,-8.99583 -0.61735,-0.70555 -1.4111,-1.14653 -2.38125,-1.41111 -4.05693,-1.23472 -8.20208,-2.46944 -12.25901,-3.79236 -0.44099,-0.0882 -1.23474,-0.0882 -1.14655,-0.79375 0.0882,-0.97014 0.88196,-0.52917 1.41113,-0.61736 2.11667,-0.0882 4.23333,-0.26459 6.35,-0.26459 1.05833,0 1.4111,-0.35277 1.4111,-1.41111 0.1764,-4.40972 0.44098,-8.90764 0.61735,-13.31736 0,-1.4993 0.44098,-2.29305 1.9403,-2.64583 1.2347,-0.17639 2.38125,-0.70556 3.61595,-0.88195 1.49932,-0.26458 1.5875,-0.79375 0.52917,-1.76388 -0.17637,-0.26459 -0.61735,-0.44098 -0.35277,-0.88195 0.26458,-0.44097 0.70557,-0.17639 1.05833,0 0.79375,0.52917 1.67569,1.05833 2.55765,1.5875 0.17637,-0.79375 -0.35279,-1.05833 -0.70556,-1.41111 -1.5875,-2.02847 -3.26319,-4.14514 -5.02709,-6.08542 -1.14651,-1.23472 -1.32291,-2.20486 -0.35276,-3.70416 2.11666,-2.99861 3.96875,-6.26181 5.9972,-9.34861 0.88196,-1.32292 1.23473,-2.38125 0.0882,-3.70417 -0.52916,-0.70556 -0.88196,-1.6757 -1.41113,-2.46945 -0.70553,-0.97013 -0.97012,-1.94027 -0.17637,-3.0868 0.26459,-0.44097 0.35277,-0.88195 0,-1.41111 -1.5875,-2.99861 -3.08681,-6.08542 -4.58613,-9.08403 -0.44095,-1.05833 -0.97012,-1.32292 -2.11666,-1.14653 -5.55625,0.88195 -11.02429,1.6757 -16.49236,2.55764 -1.23473,0.17639 -1.76389,-0.26458 -1.94026,-1.41111 -0.70557,-5.20347 -1.5875,-10.31875 -2.29307,-15.52222 -0.0882,-0.52917 -0.79375,-1.5875 0.52917,-1.76389 0.0882,0 0.1764,0.0882 0.26458,0.17639 0.79375,5.20347 1.67569,10.40694 2.38125,15.61041 0.1764,1.5875 0.61735,1.94028 2.20485,1.5875 5.02709,-0.88194 10.14238,-1.41111 15.16947,-2.29305 1.85208,-0.35278 2.64583,0.17639 3.35137,1.76389 1.32291,2.99861 2.82223,5.90903 4.40973,9.17222 1.7639,-3.52778 3.43958,-6.70278 4.9389,-9.96597 1.05833,-2.38125 2.20485,-4.40972 5.20345,-4.32153 0.0882,0 0.26458,-0.17639 0.3528,-0.17639 0,-0.17639 0,-0.35278 -0.0882,-0.44097 -2.38125,-3.61597 -5.37985,-6.87917 -7.49652,-10.75972 -0.26458,-0.44098 -0.52916,-0.0882 -0.70556,-0.0882 -4.67429,0.52917 -9.3486,1.14653 -14.02292,1.6757 -5.20345,0.61736 -5.11527,0.61736 -5.29166,-4.67431 -0.0882,-2.29305 0.26458,-4.6743 -0.44096,-6.96736 0.35277,-0.35278 0.61735,-0.61736 0.97012,-0.97014 z m 85.28405,41.01042 c 0.0882,0.17639 0.17637,0.26458 0.26458,0.35278 2.46944,-0.79375 5.02709,-1.49931 7.49652,-2.38125 1.32292,-0.52917 2.11667,-0.17639 2.82223,1.05833 2.20485,3.79236 4.49792,7.49653 6.70277,11.20069 2.38125,3.96875 2.55765,3.08681 -0.61735,6.35 -0.97015,0.97014 -0.79375,1.41111 0,2.29306 3.08679,2.99861 6.08542,6.08542 9.1722,9.08403 0.97015,0.97014 1.23473,1.94027 0.70557,3.26319 -1.23473,2.99861 -2.38125,5.99722 -3.52777,8.99583 -0.70557,1.85209 -0.0882,3.175 1.76387,3.88056 4.14515,1.49931 8.37848,2.91042 12.52363,4.49792 1.2347,0.44097 2.02845,0.35277 2.73402,-0.88195 1.4111,-2.29305 3.175,-4.40972 4.40973,-6.79097 1.85208,-3.52778 4.49792,-5.37986 8.46667,-5.73264 2.02845,-0.26458 3.96875,-0.97014 5.90901,-1.41111 -2.82223,-1.05833 -5.55625,-1.67569 -8.37848,-2.29306 -1.14652,-0.17638 -1.76387,-0.70555 -2.38125,-1.5875 -2.55762,-4.05694 -5.20345,-8.11388 -7.84928,-12.17083 -0.44099,-0.70555 -0.79375,-1.4993 -0.79375,-2.46944 -0.1764,-4.58611 -0.44099,-9.08403 -0.70557,-13.67014 0,-0.61736 0.0882,-1.32292 -0.35277,-1.85209 -3.175,-4.14513 -6.35,-8.29027 -9.7014,-12.6118 -0.70556,1.85208 -1.4111,3.52778 -2.02848,5.11528 -0.97012,2.38125 -1.05833,2.46944 -3.70416,2.11666 -4.49792,-0.52916 -9.08402,-1.05833 -13.58194,-1.5875 -0.44098,-0.0882 -0.97015,-0.17639 -1.32292,0.17639 -2.64583,2.38125 -5.37985,4.7625 -8.02568,7.05556 z m -82.81458,47.71319 c -0.0882,0.0882 -0.0882,0.26459 -0.0882,0.35278 3.175,0.97014 6.35,2.02847 9.525,2.99861 1.05834,0.26458 1.9403,0.79375 2.64584,1.5875 3.35139,3.52778 6.70279,6.96736 9.96598,10.49514 0.44098,0.52917 0.88193,0.61736 1.49931,0.61736 2.82221,0.26458 5.73262,0.52917 8.55485,0.61736 1.14652,0.0882 2.02849,0.44097 2.99861,1.05834 2.91041,1.94027 5.90904,3.79236 8.81946,5.82083 0.97012,0.61736 1.5875,0.52917 2.29304,-0.35278 1.14654,-1.32292 2.55764,-2.46944 3.61598,-3.88055 1.85208,-2.55764 3.96875,-4.05695 7.14375,-2.02848 0.70556,0.44098 1.23473,0 1.5875,-0.61736 0.88193,-1.4993 2.9986,-2.20486 2.9986,-4.40972 0,-0.0882 -0.0882,-0.17639 -0.17637,-0.26458 -1.67571,-3.35139 -3.43958,-6.61459 -5.1153,-9.87778 -0.26458,-0.52917 -0.52916,-0.88195 -1.14652,-1.14653 -2.73401,-1.05833 -5.29166,-2.29305 -7.9375,-3.43958 -0.70556,-0.26459 -1.32291,-0.52917 -2.02848,-0.17639 -3.96875,2.20486 -7.5847,1.41111 -11.02428,-1.23472 -0.44099,-0.35278 -0.97015,-0.52917 -1.41113,-0.79375 -5.46804,-2.99861 -11.37709,-5.37986 -15.16944,-10.58334 -2.64583,-3.52777 -5.64443,-3.88055 -9.3486,-2.29305 -1.05833,0.44097 -1.5875,0.79375 -1.67571,2.02847 -0.0882,4.58611 -0.44096,9.17222 -0.52917,13.75833 -0.0882,1.23473 -0.52917,1.76389 -1.76387,1.76389 -1.41113,-0.0882 -2.82223,0 -4.23333,0 z m 74.08333,-30.1625 c -2.46946,-3.0868 -3.79238,-6.61458 -7.32015,-8.37847 -2.55765,-1.32292 -4.7625,-2.99861 -7.23193,-4.40972 -3.175,-1.85209 -6.17363,-3.88056 -8.37849,-6.79097 -0.97014,-1.32292 -1.67568,-1.05834 -2.55764,0 -2.64584,3.35138 -5.99721,5.73263 -9.87777,7.49652 -2.46944,1.14653 -4.85069,2.64584 -7.58473,4.05695 0.88196,0.70555 1.5875,1.23472 2.29306,1.76389 2.46944,1.94027 5.02708,3.61597 7.05557,6.08541 2.73401,3.175 5.73262,6.17361 8.46666,9.34861 1.32292,1.49931 2.82221,2.64584 4.67429,3.35139 3.3514,1.23473 6.5264,2.82223 9.8778,4.14514 1.4111,0.52917 2.38125,1.32292 2.64583,2.73403 0.70554,4.40972 3.26318,6.79097 7.5847,7.67292 1.41113,0.26458 1.85209,0.0882 2.11667,-1.14653 0.70556,-2.64583 1.49931,-5.20347 2.29306,-7.76111 0.35277,-1.14653 0.26459,-2.02847 -0.26458,-2.99861 -2.20485,-4.23334 -4.40973,-8.55486 -6.61458,-12.87639 -0.35277,-0.61736 -1.14652,-1.32292 -0.52917,-2.20486 0.52917,-0.70556 1.32292,0 1.94027,-0.0882 0.3528,0 0.70556,0 1.41113,0 z m -46.3903,-35.54236 c 0.26459,0.61736 0.79375,0.70556 1.23473,0.79375 3.3514,1.32292 6.61459,2.73403 10.05417,3.88056 3.26319,1.05833 5.99723,2.64583 8.1139,5.46805 0.79375,0.97014 1.67568,2.55764 2.73402,2.55764 1.14652,0 1.85208,-1.76389 2.91041,-2.64583 1.41111,-1.14653 1.7639,-2.46945 1.7639,-4.32153 0.0882,-5.11528 0.35277,-10.31875 0.52917,-15.43403 0.0882,-1.32291 0.44095,-2.55764 0.97012,-3.70416 2.02848,-4.14514 3.96875,-8.29028 5.99723,-12.34723 0.52917,-1.05833 0.44098,-1.5875 -0.61735,-2.20486 -4.67432,-2.64583 -9.34863,-5.37986 -14.02292,-8.11389 -1.05833,-0.61736 -1.5875,-0.52916 -2.29306,0.44098 -3.3514,4.32152 -6.79098,8.73125 -10.14235,13.05277 -0.52917,0.70556 -0.79375,1.41111 -0.79375,2.20486 -0.1764,5.99723 -0.44099,11.90625 -0.61738,17.81528 -0.0882,1.05834 -0.44096,1.5875 -1.49929,1.76389 -1.41113,0.26458 -2.91042,0.52917 -4.32155,0.79375 z m 39.15834,60.06042 c -0.61736,-1.76389 -1.14652,-3.08681 -1.5875,-4.49792 -0.35277,-1.32292 -1.14652,-2.02847 -2.38125,-2.55764 -3.52777,-1.41111 -6.87917,-2.91041 -10.40694,-4.32153 -1.49931,-0.61736 -2.64583,-1.4993 -3.79235,-2.73402 -5.37988,-5.73264 -10.05417,-12.08264 -16.66875,-16.58056 -1.41113,-0.88194 -2.38125,-1.14653 -3.96875,-0.35278 -0.97015,0.61736 -1.41113,1.23473 -1.67571,2.20486 -0.70554,2.73403 -1.5875,5.46806 -2.11667,8.29028 -0.52917,3.43959 -1.85208,5.64445 -5.64444,5.90903 -0.0882,0 -0.17639,0.0882 -0.26458,0.0882 -0.88193,0.0882 -0.97015,0.52917 -0.44098,1.14653 0.26458,0.44097 1.14655,0.79375 0.70556,1.41111 -0.52916,0.79375 -1.14651,-0.17639 -1.67568,-0.26458 -0.26458,0 -0.44098,-0.35278 -0.70557,-0.17639 3.79236,4.40972 8.02569,8.29028 13.40557,10.67153 2.20485,0.97014 4.4097,2.11667 6.35,3.43958 2.55762,1.76389 5.02708,2.11667 7.84929,0.70556 1.41113,-0.70556 2.82223,-0.61736 4.32154,0.17639 2.11667,1.05833 4.40971,1.85208 6.61459,2.82222 0,-0.26458 0.0882,-0.35278 0.0882,-0.35278 -0.0882,-0.26458 -0.1764,-0.44097 -0.35277,-0.61736 -1.94029,-2.46944 -1.41113,-4.67431 0.61735,-6.87917 0.79375,-0.88194 1.41111,-1.32291 2.64584,-0.79375 2.82223,1.05834 5.82083,2.11667 9.08402,3.2632 z m -9.34861,7.76111 c 1.5875,2.99861 2.91042,5.55625 4.23334,8.11389 1.5875,3.175 1.7639,2.46944 -0.52917,5.11528 -0.52917,0.52916 -0.88193,1.14652 -1.4111,1.5875 -0.79375,0.79375 -0.61738,1.23472 0.35277,1.5875 3.52777,1.23472 6.96735,2.46944 10.40693,3.79236 0.70557,0.26458 1.41113,0.26458 2.11667,0 5.1153,-1.6757 10.23056,-3.2632 15.34583,-4.93889 0.97015,-0.26459 1.41113,-0.70556 1.41113,-1.6757 0,-1.5875 0.0882,-3.175 0.26459,-4.7625 0.26458,-1.41111 -0.26459,-1.94027 -1.67572,-2.20486 -5.11527,-0.97014 -10.14235,-2.11666 -15.25762,-3.0868 -1.32291,-0.26459 -2.11666,-0.88195 -2.46946,-2.20486 -0.70554,-2.11667 -1.5875,-4.23334 -2.38125,-6.4382 -0.26458,-0.88194 -0.79375,-1.41111 -1.76387,-1.67569 -2.20488,-0.79375 -4.40973,-1.5875 -6.61458,-2.38125 -3.26322,-1.23473 -3.3514,-1.14653 -5.1153,1.85208 -0.26458,0.52917 -0.17637,0.79375 0,1.23472 1.23473,3.08681 2.91042,5.64445 6.35,6.35 0.44098,0.0882 0.79375,0.26459 1.14655,0.44097 0.26458,0.17639 0.79375,0.26459 0.52916,0.79375 -0.26458,0.44098 -0.61738,0.26459 -0.97015,0.17639 -1.14651,-0.52916 -2.29306,-1.05833 -3.96875,-1.67569 z m -32.72014,-67.38056 c -1.05834,0.61736 -2.82221,-0.17639 -3.61596,1.5875 -1.85208,3.79236 -3.79238,7.58473 -5.64446,11.28889 -0.26458,0.61736 -0.44095,1.05834 0.1764,1.49931 4.49791,3.79236 9.08402,7.49653 13.49375,11.28889 0.79375,0.61736 1.32291,0.52916 2.02848,0.0882 2.9986,-1.5875 5.9972,-3.26319 8.99583,-4.7625 2.38125,-1.14653 4.32152,-2.73403 6.08542,-4.6743 2.73402,-2.99862 2.64583,-2.82223 0,-5.99723 -2.02848,-2.46944 -4.58613,-4.05694 -7.58473,-5.11527 -3.79235,-1.23473 -7.40834,-2.82223 -11.20069,-4.14514 -0.88196,-0.35278 -1.49931,-1.14653 -2.73404,-1.05834 z m 52.12291,37.04167 c 0.0882,0.26458 0.0882,0.44097 0.0882,0.52917 4.14512,5.37986 6.87916,11.46527 9.78958,17.4625 0.44095,0.79375 1.05833,1.14652 1.94027,1.32291 4.32152,1.14653 8.64306,2.38125 13.05277,3.52778 0.61738,0.17639 1.41113,0.70556 1.94029,0.0882 0.61735,-0.70556 0.44096,-1.49931 0.17637,-2.38125 -1.2347,-3.96875 -2.38125,-7.9375 -3.52777,-11.90625 -0.26458,-1.14653 -0.79375,-1.6757 -1.85208,-2.02848 -3.3514,-1.23472 -6.61458,-2.46944 -9.87777,-3.88055 -3.70416,-1.49931 -7.49654,-2.73403 -11.72988,-2.73403 z m -47.80137,-9.87778 c -0.52916,-0.61736 -0.79375,-0.97014 -1.05833,-1.23472 -4.05696,-3.35139 -8.02571,-6.61458 -12.08265,-9.96597 -0.44098,-0.35278 -0.88193,-1.23472 -1.5875,-0.61736 -0.70556,0.52916 -0.61735,1.41111 0,2.20486 0.70557,1.05833 1.23473,2.20486 1.94027,3.35139 0.70556,1.05833 0.61738,1.94027 -0.0882,2.99861 -2.20485,3.43958 -4.32151,6.96736 -6.61458,10.40694 -0.52917,0.88195 -0.52917,1.41111 0.1764,2.11667 1.32292,1.4993 2.55762,3.0868 3.79235,4.58611 2.91042,3.52778 2.91042,3.43958 7.23194,2.20486 0.97014,-0.26458 1.41113,-0.79375 1.5875,-1.76389 0.79375,-3.0868 1.67571,-6.08541 2.46946,-9.17222 0.52917,-2.29306 1.05833,-4.67431 4.23333,-5.11528 z m 27.60485,56.79722 c 0,-0.0882 -0.0882,-0.26458 -0.0882,-0.35277 -0.52917,-0.79375 -3.43958,-1.05834 -4.05696,-0.35278 -1.76387,1.85208 -3.43959,3.79236 -5.20346,5.46805 -1.32291,1.23473 -0.88196,1.6757 0.26459,2.55764 1.4111,0.97014 2.20485,0.79375 3.26318,-0.52916 1.5875,-2.02848 3.3514,-3.88056 5.02708,-5.82084 0.35277,-0.26458 0.52917,-0.61736 0.79375,-0.97014 z"
       id="path390" />
    <path
       style="fill:#000000;fill-opacity:1;fill-rule:nonzero;stroke:none;stroke-width:0.264583"
       d="m 208.11253,41.987082 c 0.17639,0.264583 0.35278,0.440973 0.52917,0.617363 -0.61736,0.529166 -1.23472,1.146527 -1.94028,1.763887 -6.87916,5.73264 -13.67014,11.553473 -20.5493,17.286113 -0.88195,0.705554 -1.14653,1.23472 -0.52917,2.293054 1.49931,2.822223 3.08681,5.55625 4.23333,8.554862 1.14653,3.175 3.08681,4.321527 6.4382,3.880554 1.32292,-0.176387 2.55764,-0.08819 3.26319,-1.41111 0.44098,-0.705556 1.05834,-0.79375 1.85209,-0.61736 2.11666,0.705554 4.14514,1.23472 6.2618,1.940277 0.35278,0.08819 0.88195,0.08819 0.79375,0.705556 -0.0882,0.529167 -0.61736,0.440971 -0.97014,0.440971 -2.46944,0 -4.85069,-0.08819 -7.23194,-0.08819 -0.79375,0 -1.49931,0.08819 -2.02847,0.79375 -2.82223,3.615973 -5.73264,7.231944 -8.64306,10.847917 -0.26458,0.08819 -0.52917,0.264583 -0.70555,0.352777 -0.61737,-0.79375 0.0882,-1.234721 0.52916,-1.763888 2.29306,-2.910416 4.67431,-5.820833 7.05556,-8.73125 0.26458,-0.352779 0.79375,-0.705556 0.61736,-1.234723 -0.26458,-0.529166 -0.88195,-0.264583 -1.32292,-0.264583 -5.55625,-0.440973 -3.96875,0.61736 -6.70278,-4.497917 -1.4993,-2.822223 -2.91041,-5.732639 -4.32152,-8.643056 -0.52917,-0.970137 -0.88195,-1.852083 0.17639,-2.822221 7.76111,-6.438196 15.52222,-12.876389 23.19513,-19.402779 z"
       id="path392" />
    <path
       style="fill:#000000;fill-opacity:1;fill-rule:nonzero;stroke:none;stroke-width:0.264583"
       d="m 271.70073,226.48986 c -0.17639,0.17639 -0.26458,0.35278 -0.44097,0.44097 -0.70556,-0.17638 -0.88195,-0.88194 -1.23473,-1.41111 -2.46944,-3.70416 -5.02708,-7.49652 -7.49652,-11.28889 -0.52917,-0.88194 -1.32292,-1.4993 -2.29306,-1.94027 -2.91042,-1.23473 -5.82083,-2.55764 -8.73125,-3.88056 -0.35278,-0.17639 -0.70555,-0.35278 -0.61736,-0.88194 0.17639,-0.44098 0.44097,-0.44098 0.70556,-0.35278 4.7625,0.61736 9.4368,1.23472 14.11111,1.85208 0.26458,0.0882 0.35277,0.35278 0.52916,0.44097 0.17639,0.17639 0.35278,0.35278 0.52917,0.52917 -2.91042,0.17639 -5.73264,-0.61736 -8.64306,-0.88194 -0.70555,-0.0882 -1.41111,-0.17639 -2.20486,0.0882 1.6757,0.79375 3.43959,1.5875 5.11528,2.29306 0.79375,0.35277 1.41111,0.70555 1.94028,1.4993 2.82222,4.32153 5.64444,8.55486 8.46667,12.87639 0.17638,0.17639 0.17638,0.44097 0.26458,0.61736 z"
       id="path394" />
    <path
       style="fill:#000000;fill-opacity:1;fill-rule:nonzero;stroke:none;stroke-width:0.264583"
       d="m 107.12989,246.15722 c 0,0.61736 -0.35277,0.70556 -0.79375,0.97014 -4.58611,2.20486 -9.260414,4.40972 -13.934724,6.61459 -0.35278,0.0882 -0.70555,0.52916 -1.05833,-0.0882 -0.26458,-0.52917 0.17639,-0.70555 0.52917,-0.88194 4.7625,-2.29306 9.525004,-4.58611 14.287504,-6.79098 0.35277,-0.17638 0.79375,-0.44097 0.97013,0.17639 z"
       id="path396" />
    <path
       style="fill:#000000;fill-opacity:1;fill-rule:nonzero;stroke:none;stroke-width:0.264583"
       d="m 319.76669,154.435 c -0.35277,0.35278 -0.61735,0.61736 -0.97012,0.97014 -3.3514,3.26319 -6.61458,6.52639 -9.96598,9.87778 -0.0882,-0.0882 -0.1764,-0.17639 -0.26458,-0.17639 -0.70557,-0.44097 -0.1764,-0.79375 0.0882,-1.14653 3.26322,-3.26319 6.61459,-6.52639 9.8778,-9.70139 0.52917,-0.52916 1.05833,-1.05833 1.2347,0.17639 z"
       id="path398" />
  </g>
</svg>
